<svg width="22" height="122" viewBox="0 0 22 122" fill="none" xmlns="http://www.w3.org/2000/svg">
<path d="M17.4096 19.2518H16.4929V17.7237C16.49 17.199 16.397 16.6787 16.2179 16.1855C16.2082 16.1594 16.1971 16.1337 16.1849 16.1085C16.0366 15.7037 15.8317 15.3219 15.5763 14.9746L14.2929 13.2632C13.9369 12.7863 13.7441 12.2074 13.7429 11.6123V10.6865C13.7452 9.95804 14.0343 9.25984 14.5478 8.74313L15.15 8.13996C15.8503 7.43611 16.3002 6.52183 16.4306 5.53754C16.4306 5.52563 16.4379 5.51463 16.4379 5.50087L16.4352 5.48896C16.4671 5.29393 16.4864 5.09705 16.4929 4.89954V2.75179H17.4096C17.6527 2.75179 17.8859 2.65521 18.0578 2.48331C18.2297 2.3114 18.3263 2.07824 18.3263 1.83512C18.3263 1.59201 18.2297 1.35885 18.0578 1.18694C17.8859 1.01503 17.6527 0.918457 17.4096 0.918457H4.57627C4.33316 0.918457 4.1 1.01503 3.92809 1.18694C3.75619 1.35885 3.65961 1.59201 3.65961 1.83512C3.65961 2.07824 3.75619 2.3114 3.92809 2.48331C4.1 2.65521 4.33316 2.75179 4.57627 2.75179H5.49294V4.89954C5.49951 5.09705 5.5188 5.29393 5.55069 5.48896L5.54794 5.50179C5.54794 5.51463 5.55436 5.52562 5.55527 5.53846C5.6856 6.52231 6.13515 7.43622 6.83494 8.13996L7.43719 8.74221C7.95117 9.259 8.24069 9.95759 8.24294 10.6865V11.6123C8.2415 12.2071 8.04866 12.7856 7.69294 13.2623L6.40961 14.9746C6.15389 15.3219 5.94866 15.7037 5.80002 16.1085C5.78783 16.1337 5.77682 16.1594 5.76702 16.1855C5.58804 16.6788 5.49503 17.199 5.49202 17.7237V19.2518H4.57536C4.33224 19.2518 4.09909 19.3484 3.92718 19.5203C3.75527 19.6922 3.65869 19.9253 3.65869 20.1685C3.65869 20.4116 3.75527 20.6447 3.92718 20.8166C4.09909 20.9886 4.33224 21.0851 4.57536 21.0851H17.4087C17.6518 21.0851 17.885 20.9886 18.0569 20.8166C18.2288 20.6447 18.3254 20.4116 18.3254 20.1685C18.3254 19.9253 18.2288 19.6922 18.0569 19.5203C17.885 19.3484 17.6518 19.2518 17.4087 19.2518H17.4096ZM7.32627 4.58512V2.75179H14.6596V4.58512H7.32627ZM8.13111 6.84379C8.0019 6.714 7.88612 6.5715 7.78552 6.41846H14.1994C14.0988 6.5715 13.9831 6.714 13.8539 6.84379L13.2516 7.44604C12.5365 8.15687 12.078 9.08523 11.9481 10.0851H10.0378C9.90792 9.08523 9.44938 8.15687 8.73427 7.44604L8.13111 6.84379ZM9.15961 14.3623C9.68991 13.6516 10.0043 12.8031 10.0653 11.9185H11.9197C11.9807 12.8033 12.2955 13.6518 12.8263 14.3623L13.7429 15.5851H8.24294L9.15961 14.3623ZM14.6596 19.2518H7.32627V17.7237C7.32876 17.6216 7.33702 17.5197 7.35102 17.4185H14.6339C14.6482 17.5196 14.6568 17.6216 14.6596 17.7237V19.2518Z" fill="#5B636B"/>
<path d="M20.1666 110.083C20.1692 109.437 20.001 108.802 19.679 108.242C19.3571 107.681 18.8928 107.216 18.3333 106.893C18.3471 106.735 18.3471 106.575 18.3333 106.417C18.3333 105.687 18.0435 104.988 17.5278 104.472C17.0121 103.956 16.3126 103.667 15.5833 103.667H15.4183C15.2656 103.243 15.0115 102.864 14.6781 102.562C14.3447 102.26 13.9423 102.044 13.5062 101.934C13.07 101.823 12.6135 101.822 12.1765 101.929C11.7395 102.036 11.3356 102.249 10.9999 102.548C10.6643 102.249 10.2603 102.036 9.82338 101.929C9.38642 101.822 8.92985 101.823 8.4937 101.934C8.05755 102.044 7.65515 102.26 7.32178 102.562C6.98841 102.864 6.73426 103.243 6.58161 103.667H6.41661C5.68726 103.667 4.98779 103.956 4.47207 104.472C3.95634 104.988 3.66661 105.687 3.66661 106.417C3.65281 106.575 3.65281 106.735 3.66661 106.893C3.14637 107.187 2.70588 107.604 2.3835 108.107C2.06112 108.61 1.86661 109.185 1.8169 109.78C1.7672 110.376 1.86381 110.974 2.09832 111.524C2.33284 112.074 2.69814 112.558 3.16244 112.934C2.86203 113.494 2.71247 114.123 2.72844 114.759C2.74442 115.394 2.92539 116.015 3.25358 116.559C3.58177 117.104 4.04592 117.554 4.60045 117.865C5.15498 118.176 5.78084 118.337 6.41661 118.333H6.58161C6.73426 118.756 6.98841 119.136 7.32178 119.438C7.65515 119.74 8.05755 119.956 8.4937 120.066C8.92985 120.176 9.38642 120.178 9.82338 120.071C10.2603 119.964 10.6643 119.751 10.9999 119.452C11.3356 119.751 11.7395 119.964 12.1765 120.071C12.6135 120.178 13.07 120.176 13.5062 120.066C13.9423 119.956 14.3447 119.74 14.6781 119.438C15.0115 119.136 15.2656 118.756 15.4183 118.333H15.5833C16.2152 118.329 16.8353 118.162 17.3835 117.848C17.9317 117.534 18.3894 117.083 18.7122 116.54C19.035 115.996 19.212 115.379 19.2259 114.747C19.2398 114.116 19.0902 113.491 18.7916 112.934C19.2192 112.592 19.5646 112.158 19.8026 111.665C20.0405 111.171 20.1649 110.631 20.1666 110.083ZM10.0833 107.837C9.88363 107.723 9.67519 107.625 9.45994 107.544C9.22898 107.466 8.97658 107.483 8.75825 107.592C8.53993 107.7 8.37357 107.891 8.29578 108.122C8.21798 108.353 8.23512 108.605 8.34342 108.823C8.45172 109.042 8.64232 109.208 8.87328 109.286C9.22614 109.413 9.53136 109.646 9.74774 109.953C9.96412 110.259 10.0812 110.625 10.0833 111V112.421C9.88363 112.307 9.67519 112.208 9.45994 112.127C9.22898 112.05 8.97658 112.067 8.75825 112.175C8.53993 112.283 8.37357 112.474 8.29578 112.705C8.21798 112.936 8.23512 113.188 8.34342 113.407C8.45172 113.625 8.64232 113.791 8.87328 113.869C9.22614 113.997 9.53136 114.229 9.74774 114.536C9.96412 114.842 10.0812 115.208 10.0833 115.583V117.417C10.0833 117.66 9.9867 117.893 9.81479 118.065C9.64288 118.237 9.40972 118.333 9.16661 118.333C8.98926 118.332 8.81606 118.279 8.668 118.182C8.51994 118.084 8.40338 117.946 8.33244 117.783C8.48615 117.693 8.63319 117.592 8.77244 117.481C8.86513 117.404 8.94174 117.309 8.9979 117.202C9.05405 117.096 9.08865 116.979 9.09971 116.859C9.11078 116.739 9.09809 116.618 9.06239 116.503C9.02668 116.388 8.96865 116.281 8.89161 116.188C8.81457 116.096 8.72002 116.019 8.61337 115.963C8.50672 115.907 8.39006 115.872 8.27004 115.861C8.15002 115.85 8.029 115.863 7.91388 115.898C7.79876 115.934 7.6918 115.992 7.59911 116.069C7.26813 116.348 6.84927 116.5 6.41661 116.5C5.93038 116.5 5.46406 116.307 5.12025 115.963C4.77643 115.619 4.58328 115.153 4.58328 114.667C4.58766 114.322 4.68934 113.985 4.87661 113.695C5.08233 113.732 5.29094 113.75 5.49994 113.75C5.74306 113.75 5.97622 113.653 6.14812 113.481C6.32003 113.309 6.41661 113.076 6.41661 112.833C6.41661 112.59 6.32003 112.357 6.14812 112.185C5.97622 112.013 5.74306 111.917 5.49994 111.917C5.28342 111.918 5.06867 111.877 4.86744 111.797C4.53776 111.678 4.24906 111.468 4.03556 111.19C3.82206 110.912 3.69269 110.578 3.66279 110.229C3.63288 109.88 3.7037 109.53 3.86684 109.219C4.02998 108.909 4.27861 108.652 4.58328 108.479C4.71353 108.599 4.8547 108.706 5.00494 108.8C5.21645 108.921 5.46759 108.954 5.7031 108.89C5.93862 108.827 6.13922 108.672 6.26078 108.461C6.38233 108.249 6.41489 107.998 6.35128 107.763C6.28768 107.527 6.13312 107.326 5.92161 107.205C5.79257 107.134 5.68495 107.029 5.60994 106.902C5.52519 106.755 5.48686 106.586 5.49994 106.417C5.49994 106.173 5.59652 105.94 5.76843 105.768C5.94034 105.596 6.17349 105.5 6.41661 105.5C6.48047 105.491 6.54525 105.491 6.60911 105.5C6.65764 105.647 6.71582 105.791 6.78328 105.931C6.84316 106.036 6.92324 106.128 7.01889 106.202C7.11454 106.276 7.22388 106.33 7.34061 106.362C7.45733 106.393 7.57915 106.401 7.69903 106.386C7.81891 106.37 7.93449 106.33 8.03911 106.27C8.24234 106.148 8.39026 105.951 8.4518 105.722C8.51334 105.493 8.4837 105.249 8.36911 105.042C8.29219 104.901 8.25126 104.743 8.24994 104.583C8.24994 104.34 8.34652 104.107 8.51843 103.935C8.69034 103.763 8.92349 103.667 9.16661 103.667C9.40972 103.667 9.64288 103.763 9.81479 103.935C9.9867 104.107 10.0833 104.34 10.0833 104.583V107.837ZM17.1324 111.797C16.9312 111.877 16.7165 111.918 16.4999 111.917C16.2568 111.917 16.0237 112.013 15.8518 112.185C15.6798 112.357 15.5833 112.59 15.5833 112.833C15.5833 113.076 15.6798 113.309 15.8518 113.481C16.0237 113.653 16.2568 113.75 16.4999 113.75C16.7089 113.75 16.9176 113.732 17.1233 113.695C17.3105 113.985 17.4122 114.322 17.4166 114.667C17.4166 115.153 17.2235 115.619 16.8796 115.963C16.5358 116.307 16.0695 116.5 15.5833 116.5C15.1506 116.5 14.7318 116.348 14.4008 116.069C14.2136 115.913 13.9722 115.839 13.7298 115.861C13.4875 115.883 13.2639 116.001 13.1083 116.188C12.9527 116.375 12.8778 116.617 12.9002 116.859C12.9225 117.102 13.0402 117.325 13.2274 117.481C13.3667 117.592 13.5137 117.693 13.6674 117.783C13.5965 117.946 13.4799 118.084 13.3319 118.182C13.1838 118.279 13.0106 118.332 12.8333 118.333C12.5902 118.333 12.357 118.237 12.1851 118.065C12.0132 117.893 11.9166 117.66 11.9166 117.417V115.583C11.9186 115.208 12.0358 114.842 12.2521 114.536C12.4685 114.229 12.7737 113.997 13.1266 113.869C13.3576 113.791 13.5482 113.625 13.6565 113.407C13.7648 113.188 13.7819 112.936 13.7041 112.705C13.6263 112.474 13.46 112.283 13.2416 112.175C13.0233 112.067 12.7709 112.05 12.5399 112.127C12.3247 112.208 12.1163 112.307 11.9166 112.421V111C11.9186 110.625 12.0358 110.259 12.2521 109.953C12.4685 109.646 12.7737 109.413 13.1266 109.286C13.241 109.247 13.3466 109.187 13.4375 109.107C13.5284 109.028 13.6028 108.931 13.6565 108.823C13.7101 108.715 13.7419 108.598 13.7501 108.477C13.7582 108.357 13.7426 108.236 13.7041 108.122C13.6656 108.007 13.6049 107.902 13.5256 107.811C13.4462 107.72 13.3497 107.645 13.2416 107.592C13.1335 107.538 13.0159 107.506 12.8955 107.498C12.7751 107.49 12.6543 107.506 12.5399 107.544C12.3247 107.625 12.1163 107.723 11.9166 107.837V104.583C11.9166 104.34 12.0132 104.107 12.1851 103.935C12.357 103.763 12.5902 103.667 12.8333 103.667C13.0764 103.667 13.3095 103.763 13.4815 103.935C13.6534 104.107 13.7499 104.34 13.7499 104.583C13.7486 104.743 13.7077 104.901 13.6308 105.042C13.5698 105.146 13.5299 105.261 13.5135 105.38C13.4971 105.5 13.5044 105.621 13.5351 105.738C13.5657 105.855 13.6191 105.964 13.6922 106.06C13.7652 106.156 13.8565 106.237 13.9608 106.297C14.0654 106.358 14.181 106.397 14.3009 106.413C14.4207 106.429 14.5425 106.421 14.6593 106.389C14.776 106.358 14.8853 106.303 14.981 106.229C15.0766 106.155 15.1567 106.063 15.2166 105.958C15.2852 105.81 15.3434 105.657 15.3908 105.5C15.4546 105.491 15.5194 105.491 15.5833 105.5C15.8264 105.5 16.0595 105.596 16.2315 105.768C16.4034 105.94 16.4999 106.173 16.4999 106.417C16.4985 106.596 16.4443 106.772 16.3441 106.921C16.2691 107.04 16.165 107.137 16.0416 107.205C15.8301 107.326 15.6755 107.527 15.6119 107.763C15.5483 107.998 15.5809 108.249 15.7024 108.461C15.824 108.672 16.0246 108.827 16.2601 108.89C16.4956 108.954 16.7468 108.921 16.9583 108.8C17.1229 108.711 17.2766 108.603 17.4166 108.479C17.7223 108.649 17.9729 108.903 18.1389 109.211C18.3049 109.519 18.3792 109.868 18.3532 110.217C18.3272 110.566 18.2019 110.9 17.992 111.18C17.7822 111.46 17.4967 111.674 17.1691 111.797H17.1324Z" fill="#5B636B"/>
<path d="M8.25017 35.0833C8.43147 35.0833 8.6087 35.0295 8.75944 34.9288C8.91019 34.828 9.02768 34.6849 9.09706 34.5174C9.16644 34.3499 9.18459 34.1656 9.14922 33.9878C9.11385 33.8099 9.02655 33.6466 8.89835 33.5184C8.77015 33.3902 8.60682 33.3029 8.429 33.2675C8.25118 33.2322 8.06687 33.2503 7.89937 33.3197C7.73188 33.3891 7.58871 33.5066 7.48799 33.6573C7.38726 33.8081 7.3335 33.9853 7.3335 34.1666C7.3335 34.4097 7.43008 34.6429 7.60199 34.8148C7.77389 34.9867 8.00705 35.0833 8.25017 35.0833ZM11.0002 26.8333C9.18717 26.8333 7.41489 27.3709 5.90744 28.3781C4.39999 29.3854 3.22507 30.817 2.53127 32.492C1.83747 34.167 1.65594 36.0101 2.00964 37.7882C2.36333 39.5664 3.23637 41.1997 4.51836 42.4817C5.80034 43.7637 7.43368 44.6368 9.21184 44.9904C10.99 45.3441 12.8331 45.1626 14.5081 44.4688C16.1831 43.775 17.6147 42.6001 18.622 41.0926C19.6292 39.5852 20.1668 37.8129 20.1668 35.9999C20.1668 34.7961 19.9297 33.6041 19.4691 32.492C19.0084 31.3798 18.3332 30.3693 17.482 29.5181C16.6308 28.6669 15.6203 27.9917 14.5081 27.531C13.3959 27.0704 12.204 26.8333 11.0002 26.8333ZM11.0002 43.3332C9.54977 43.3332 8.13195 42.9032 6.92599 42.0974C5.72003 41.2916 4.78009 40.1463 4.22505 38.8063C3.67001 37.4663 3.52478 35.9918 3.80774 34.5693C4.0907 33.1467 4.78913 31.8401 5.81472 30.8145C6.8403 29.7889 8.14698 29.0905 9.56951 28.8075C10.992 28.5245 12.4665 28.6698 13.8065 29.2248C15.1465 29.7798 16.2918 30.7198 17.0976 31.9257C17.9034 33.1317 18.3335 34.5495 18.3335 35.9999C18.3335 37.9448 17.5609 39.8101 16.1856 41.1854C14.8104 42.5606 12.9451 43.3332 11.0002 43.3332ZM13.7502 36.9166H8.25017C8.00705 36.9166 7.77389 37.0132 7.60199 37.1851C7.43008 37.357 7.3335 37.5901 7.3335 37.8333C7.3335 38.8057 7.71981 39.7383 8.40744 40.426C9.09508 41.1136 10.0277 41.4999 11.0002 41.4999C11.9726 41.4999 12.9053 41.1136 13.5929 40.426C14.2805 39.7383 14.6668 38.8057 14.6668 37.8333C14.6668 37.5901 14.5703 37.357 14.3983 37.1851C14.2264 37.0132 13.9933 36.9166 13.7502 36.9166ZM11.0002 39.6666C10.6787 39.6663 10.3629 39.5814 10.0846 39.4205C9.80622 39.2596 9.57508 39.0283 9.41434 38.7499H12.586C12.4253 39.0283 12.1941 39.2596 11.9158 39.4205C11.6374 39.5814 11.3217 39.6663 11.0002 39.6666ZM13.7502 33.2499C13.5689 33.2499 13.3916 33.3037 13.2409 33.4044C13.0902 33.5051 12.9727 33.6483 12.9033 33.8158C12.8339 33.9833 12.8157 34.1676 12.8511 34.3454C12.8865 34.5232 12.9738 34.6866 13.102 34.8148C13.2302 34.943 13.3935 35.0303 13.5713 35.0656C13.7492 35.101 13.9335 35.0829 14.101 35.0135C14.2685 34.9441 14.4116 34.8266 14.5123 34.6759C14.6131 34.5251 14.6668 34.3479 14.6668 34.1666C14.6668 33.9235 14.5703 33.6903 14.3983 33.5184C14.2264 33.3465 13.9933 33.2499 13.7502 33.2499Z" fill="#5B636B"/>
<path d="M10.9999 76.8333C9.46697 76.8348 7.95893 77.2208 6.61374 77.9558C5.26856 78.6909 4.12919 79.7515 3.29988 81.0408C2.13348 82.87 1.65368 85.0537 1.9458 87.2034C2.23793 89.3531 3.28304 91.3296 4.89527 92.7812C6.50751 94.2329 8.58237 95.0657 10.7509 95.1316C12.9193 95.1974 15.0409 94.492 16.7382 93.1408C18.2155 91.9517 19.2876 90.3338 19.8068 88.5099C20.3261 86.686 20.2669 84.746 19.6374 82.9572C19.008 81.1684 17.8392 79.6188 16.2923 78.522C14.7453 77.4252 12.8962 76.8352 10.9999 76.8333ZM12.8332 78.9049C14.0999 79.2328 15.2558 79.8936 16.181 80.8188C17.1062 81.744 17.767 82.8999 18.0949 84.1666C16.5622 84.2098 15.0662 84.6453 13.7499 85.4316C13.0889 84.6817 12.3516 84.0028 11.5499 83.4058C12.3576 82.0408 12.7996 80.4906 12.8332 78.9049ZM10.9999 78.6666C10.9969 79.982 10.6356 81.2718 9.95488 82.3974C9.81738 82.3241 9.68905 82.2416 9.55155 82.1774C8.37122 81.5546 7.10912 81.101 5.80238 80.8299C6.48351 80.1447 7.29331 79.6009 8.18527 79.2296C9.07722 78.8584 10.0337 78.667 10.9999 78.6666ZM4.58322 82.4799C6.02093 82.6796 7.41335 83.1262 8.69905 83.7999L8.81822 83.8733C8.14163 84.5492 7.33832 85.085 6.4543 85.4499C5.57028 85.8149 4.62293 86.0018 3.66655 85.9999C3.67165 84.7682 3.9869 83.5577 4.58322 82.4799ZM9.16655 93.0949C7.89987 92.767 6.74398 92.1062 5.81878 91.181C4.89358 90.2558 4.23277 89.0999 3.90488 87.8333C5.12923 87.8061 6.33541 87.5314 7.45078 87.0257C8.56614 86.52 9.56762 85.7937 10.3949 84.8908C11.0576 85.3806 11.6715 85.9332 12.2282 86.5408C11.3 87.3684 10.5499 88.3763 10.0235 89.503C9.49716 90.6298 9.20559 91.8519 9.16655 93.0949ZM10.9999 93.3333C11.0019 92.3262 11.2112 91.3303 11.615 90.4077C12.0187 89.4851 12.6082 88.6556 13.3465 87.9708C13.4016 88.0441 13.4565 88.1083 13.5024 88.1816C14.2705 89.3579 14.8403 90.6523 15.189 92.0133C13.9622 92.8747 12.499 93.3357 10.9999 93.3333ZM16.6924 90.5833C16.2943 89.3705 15.7396 88.2149 15.0424 87.1458L14.8499 86.9166C15.9157 86.3236 17.1136 86.0084 18.3332 85.9999C18.3241 87.67 17.7453 89.2869 16.6924 90.5833Z" fill="#5B636B"/>
<path d="M10.9997 51.8335C8.64972 51.8402 6.39206 52.7492 4.69302 54.3727V52.7502C4.69302 52.507 4.59644 52.2739 4.42453 52.102C4.25262 51.9301 4.01947 51.8335 3.77635 51.8335C3.53323 51.8335 3.30007 51.9301 3.12817 52.102C2.95626 52.2739 2.85968 52.507 2.85968 52.7502V56.8751C2.85968 57.1183 2.95626 57.3514 3.12817 57.5233C3.30007 57.6952 3.53323 57.7918 3.77635 57.7918H7.90137C8.14448 57.7918 8.37764 57.6952 8.54955 57.5233C8.72146 57.3514 8.81804 57.1183 8.81804 56.8751C8.81804 56.632 8.72146 56.3989 8.54955 56.227C8.37764 56.0551 8.14448 55.9585 7.90137 55.9585H5.70136C6.87999 54.7268 8.45092 53.9443 10.144 53.7454C11.8371 53.5464 13.5467 53.9436 14.9787 54.8686C16.4107 55.7936 17.4757 57.1886 17.9905 58.8137C18.5054 60.4388 18.438 62.1926 17.8 63.7734C17.1619 65.3542 15.993 66.6634 14.4942 67.4757C12.9954 68.2881 11.2605 68.5529 9.58763 68.2246C7.91477 67.8964 6.40854 66.9956 5.3279 65.6771C4.24726 64.3586 3.65974 62.7049 3.66635 61.0001C3.66635 60.757 3.56977 60.5239 3.39786 60.3519C3.22595 60.18 2.99279 60.0835 2.74968 60.0835C2.50656 60.0835 2.2734 60.18 2.10149 60.3519C1.92959 60.5239 1.83301 60.757 1.83301 61.0001C1.83301 62.8131 2.37063 64.5854 3.37788 66.0928C4.38513 67.6003 5.81677 68.7752 7.49177 69.469C9.16676 70.1628 11.0099 70.3443 12.788 69.9906C14.5662 69.6369 16.1996 68.7639 17.4816 67.4819C18.7635 66.1999 19.6366 64.5666 19.9903 62.7884C20.344 61.0103 20.1624 59.1672 19.4686 57.4922C18.7748 55.8172 17.5999 54.3856 16.0925 53.3784C14.585 52.3711 12.8127 51.8335 10.9997 51.8335ZM10.9997 57.3335C10.7566 57.3335 10.5234 57.43 10.3515 57.602C10.1796 57.7739 10.083 58.007 10.083 58.2501V61.0001C10.083 61.2432 10.1796 61.4764 10.3515 61.6483C10.5234 61.8202 10.7566 61.9168 10.9997 61.9168H12.8331C13.0762 61.9168 13.3093 61.8202 13.4812 61.6483C13.6531 61.4764 13.7497 61.2432 13.7497 61.0001C13.7497 60.757 13.6531 60.5239 13.4812 60.3519C13.3093 60.18 13.0762 60.0835 12.8331 60.0835H11.9164V58.2501C11.9164 58.007 11.8198 57.7739 11.6479 57.602C11.476 57.43 11.2428 57.3335 10.9997 57.3335Z" fill="#5B636B"/>
</svg>
