<svg width="32" height="32" viewBox="0 0 32 32" fill="none" xmlns="http://www.w3.org/2000/svg">
<path d="M21.8757 17.1239C23.428 15.9026 24.5611 14.2279 25.1172 12.3327C25.6734 10.4374 25.625 8.416 24.9787 6.54957C24.3325 4.68314 23.1207 3.06454 21.5117 1.91894C19.9027 0.773338 17.9767 0.157715 16.0016 0.157715C14.0265 0.157715 12.1004 0.773338 10.4915 1.91894C8.88251 3.06454 7.67063 4.68314 7.02442 6.54957C6.37821 8.416 6.32981 10.4374 6.88595 12.3327C7.4421 14.2279 8.57513 15.9026 10.1274 17.1239C7.46754 18.1896 5.1467 19.9571 3.41233 22.238C1.67795 24.5188 0.595056 27.2277 0.279082 30.0756C0.25621 30.2835 0.274516 30.4939 0.332955 30.6948C0.391394 30.8956 0.488822 31.083 0.619675 31.2462C0.883945 31.5758 1.26832 31.7869 1.68825 31.8331C2.10817 31.8793 2.52925 31.7568 2.85885 31.4925C3.18844 31.2282 3.39956 30.8438 3.44575 30.4239C3.79342 27.3288 5.26925 24.4703 7.59126 22.3945C9.91327 20.3187 12.9187 19.1712 16.0332 19.1712C19.1478 19.1712 22.1532 20.3187 24.4752 22.3945C26.7972 24.4703 28.2731 27.3288 28.6207 30.4239C28.6638 30.813 28.8494 31.1723 29.1418 31.4325C29.4342 31.6928 29.8127 31.8355 30.2041 31.8331H30.3782C30.7933 31.7853 31.1726 31.5755 31.4336 31.2492C31.6946 30.923 31.8161 30.5068 31.7716 30.0914C31.4541 27.2354 30.3654 24.5196 28.6221 22.2352C26.8788 19.9508 24.5467 18.1839 21.8757 17.1239ZM16.0016 15.9998C14.749 15.9998 13.5245 15.6283 12.483 14.9324C11.4415 14.2365 10.6297 13.2473 10.1503 12.0901C9.67099 10.9328 9.54557 9.65939 9.78994 8.43085C10.0343 7.2023 10.6375 6.07381 11.5232 5.18807C12.409 4.30234 13.5375 3.69915 14.766 3.45478C15.9946 3.2104 17.268 3.33582 18.4252 3.81518C19.5825 4.29453 20.5716 5.10629 21.2676 6.14781C21.9635 7.18932 22.3349 8.4138 22.3349 9.66642C22.3349 11.3461 21.6677 12.957 20.4799 14.1448C19.2922 15.3325 17.6813 15.9998 16.0016 15.9998Z" fill="#F2B236"/>
</svg>
