<svg width="32" height="38" viewBox="0 0 32 38" fill="none" xmlns="http://www.w3.org/2000/svg">
<path d="M11.875 31.4167C11.3558 31.4167 10.8483 31.5853 10.4166 31.9012C9.98495 32.2171 9.64849 32.6661 9.44981 33.1915C9.25113 33.7168 9.19915 34.2949 9.30044 34.8526C9.40172 35.4102 9.65173 35.9225 10.0188 36.3246C10.386 36.7267 10.8537 37.0005 11.3629 37.1114C11.8721 37.2224 12.3999 37.1654 12.8795 36.9478C13.3592 36.7302 13.7692 36.3617 14.0576 35.8889C14.346 35.4161 14.5 34.8603 14.5 34.2917C14.5 33.5292 14.2234 32.7979 13.7312 32.2587C13.2389 31.7196 12.5712 31.4167 11.875 31.4167ZM30.25 25.6667H9.25C8.78587 25.6667 8.34075 25.4647 8.01256 25.1053C7.68437 24.7458 7.5 24.2583 7.5 23.75C7.5 23.2417 7.68437 22.7542 8.01256 22.3947C8.34075 22.0353 8.78587 21.8333 9.25 21.8333H24.1092C25.2494 21.8294 26.3576 21.4209 27.2679 20.669C28.1781 19.917 28.8413 18.8622 29.158 17.6627L31.9317 7.02517C32.0059 6.74009 32.0187 6.44005 31.9691 6.14865C31.9195 5.85725 31.8088 5.58242 31.6458 5.34578C31.4828 5.10913 31.272 4.91711 31.0298 4.78481C30.7876 4.65252 30.5206 4.58355 30.25 4.58333H8.795C8.43242 3.46595 7.76395 2.49825 6.88078 1.81224C5.99761 1.12622 4.94273 0.755278 3.86 0.75H2.25C1.78587 0.75 1.34075 0.951934 1.01256 1.31138C0.684374 1.67082 0.5 2.15834 0.5 2.66667C0.5 3.175 0.684374 3.66251 1.01256 4.02195C1.34075 4.3814 1.78587 4.58333 2.25 4.58333H3.86175C4.24177 4.58466 4.61117 4.72076 4.91465 4.97126C5.21814 5.22176 5.43938 5.57318 5.54525 5.97292L5.8165 7.0175V7.02708L8.68825 18.0326C7.35154 18.1891 6.12058 18.9013 5.24906 20.0223C4.37754 21.1433 3.93187 22.5878 4.00389 24.0581C4.07591 25.5283 4.66014 26.9123 5.63618 27.9247C6.61221 28.9372 7.90567 29.501 9.25 29.5H30.25C30.7141 29.5 31.1592 29.2981 31.4874 28.9386C31.8156 28.5792 32 28.0917 32 27.5833C32 27.075 31.8156 26.5875 31.4874 26.228C31.1592 25.8686 30.7141 25.6667 30.25 25.6667ZM27.9295 8.41667L25.7945 16.6085C25.6889 17.0089 25.4675 17.361 25.1636 17.6119C24.8598 17.8628 24.4898 17.999 24.1092 18H12.3195L11.8732 16.2903L9.8205 8.41667H27.9295ZM25.875 31.4167C25.3558 31.4167 24.8483 31.5853 24.4166 31.9012C23.9849 32.2171 23.6485 32.6661 23.4498 33.1915C23.2511 33.7168 23.1991 34.2949 23.3004 34.8526C23.4017 35.4102 23.6517 35.9225 24.0188 36.3246C24.386 36.7267 24.8537 37.0005 25.3629 37.1114C25.8721 37.2224 26.3999 37.1654 26.8795 36.9478C27.3592 36.7302 27.7692 36.3617 28.0576 35.8889C28.346 35.4161 28.5 34.8603 28.5 34.2917C28.5 33.5292 28.2234 32.7979 27.7311 32.2587C27.2389 31.7196 26.5712 31.4167 25.875 31.4167Z" fill="#F2B236"/>
</svg>
