<svg width="210" height="34" viewBox="0 0 210 34" fill="none" xmlns="http://www.w3.org/2000/svg">
<g clip-path="url(#clip0)">
<path d="M59.9526 25.0866C59.7556 24.7698 59.4892 24.6114 59.15 24.6114C58.734 24.6114 58.3802 24.7956 58.0956 25.1639C57.0011 26.5304 55.6585 27.6169 54.0715 28.4162C52.4809 29.2192 51.0763 29.6206 49.8504 29.6206C48.2342 29.6206 47.4279 28.965 47.4279 27.6501C47.4279 26.4936 47.9424 25.3296 48.9712 24.1584C50 22.9871 51.7767 21.418 54.305 19.4438C55.2426 18.7072 55.7096 17.7348 55.7096 16.5267C55.7096 16 55.5783 15.6059 55.3192 15.3444C55.0602 15.0829 54.7063 14.9503 54.2649 14.9503C53.9256 14.9503 53.3783 15.1087 52.6231 15.4254C52.5173 15.4512 52.2911 15.5322 51.9409 15.6611C51.5907 15.7937 51.193 15.9116 50.7479 16.0147C50.3065 16.1215 49.8614 16.1731 49.4199 16.1731C48.5079 16.1731 47.8366 16.0221 47.4097 15.7201C46.9792 15.418 46.6217 14.9503 46.3371 14.3204C45.8701 13.2413 45.0493 12.7035 43.8745 12.7035C42.2328 12.7035 41.1638 13.5838 40.6713 15.3481C40.124 17.3186 39.595 18.9061 39.0879 20.0994C38.5808 21.2965 38.0409 22.3794 37.4681 23.3554C36.9026 24.3315 36.0562 25.4659 34.958 26.7403C34.4144 27.2891 33.9146 27.7274 33.4659 28.0479C32.645 28.6262 31.8059 28.9171 30.9449 28.9171C30.0328 28.9171 29.3251 28.6409 28.8143 28.0884C28.3072 27.5359 28.0518 26.7072 28.0518 25.6022C28.0518 24.6556 28.1831 23.5249 28.4422 22.2099L30.8245 10.9282C31.266 8.98343 31.5396 7.09024 31.6454 5.24862L35.5928 5.76059C35.7497 5.78637 35.9686 5.80111 36.2568 5.80111C37.0376 5.80111 37.625 5.59853 38.0153 5.18969C38.4057 4.78085 38.6027 4.18416 38.6027 3.39595C38.6027 2.86925 38.4276 2.40516 38.0773 1.99632C37.7271 1.58748 37.147 1.3186 36.3371 1.186C31.4374 0.394107 26.4356 0 21.3316 0C16.4101 0 12.3896 0.316759 9.27764 0.946593C6.16563 1.57643 3.84166 2.5709 2.30208 3.92634C0.769792 5.27808 0 7.07551 0 9.30755C0 10.361 0.167822 11.3002 0.507114 12.1289C0.846406 12.9576 1.27326 13.5948 1.79497 14.0405C2.08318 14.302 2.44436 14.4346 2.88946 14.4346C3.51332 14.4346 4.10799 14.2173 4.66618 13.7827C5.22437 13.3481 5.50529 12.8692 5.50529 12.3425C5.50529 12.0552 5.43962 11.8158 5.30828 11.6317C4.86684 10.9466 4.64429 10.1473 4.64429 9.22652C4.64429 8.09576 5.18424 7.20074 6.26414 6.54512C7.34404 5.8895 9.09522 5.41436 11.5177 5.12707L11.1273 7.02026C10.737 8.93923 10.3466 10.9392 9.95622 13.0166C9.56585 15.0939 9.20102 17.2228 8.86173 19.407C8.70485 20.5893 8.48231 21.9853 8.19774 23.5875C7.93871 25.1934 7.70887 26.7219 7.51551 28.1842C7.3185 29.6427 7.22364 30.6888 7.22364 31.3186C7.22364 32.0037 7.45713 32.5562 7.92776 32.9761C8.39839 33.396 9.06239 33.6059 9.91974 33.6059C10.726 33.6059 11.4155 33.4033 11.992 32.9945C12.5648 32.5856 12.8785 32.0037 12.9296 31.2376C13.0354 29.7901 13.2433 27.8932 13.5534 25.5396C13.8672 23.186 14.1664 21.116 14.4509 19.326C15.2827 14.4088 16.1693 9.55801 17.1069 4.7698C17.7308 4.74401 18.7486 4.72928 20.1532 4.72928C22.4991 4.72928 24.5275 4.7698 26.2495 4.84715C26.1437 6.18785 25.7278 8.67403 24.9982 12.302L23.5534 19.5212C22.9332 22.6262 22.6195 24.8766 22.6195 26.2689C22.6195 28.5046 23.2324 30.2873 24.4546 31.6133C25.6768 32.9429 27.3988 33.6059 29.6133 33.6059C31.0981 33.6059 32.4991 33.2265 33.8125 32.4604C35.1259 31.698 36.4502 30.4899 37.7782 28.8324C37.8183 28.7845 37.8475 28.7256 37.884 28.6703C38.1941 28.3315 38.4933 27.9963 38.7742 27.6685C39.595 26.7109 40.4743 25.4659 41.4119 23.9411C42.4517 22.2578 43.3017 19.9448 43.9511 16.9982C44.2904 17.8932 44.7647 18.5635 45.3776 19.0092C45.9905 19.4549 46.7129 19.6796 47.5447 19.6796C48.2488 19.6796 48.8325 19.5875 49.3032 19.4033C47.1142 20.9282 45.4396 22.3683 44.2831 23.7238C43.1229 25.0792 42.5429 26.6483 42.5429 28.4383C42.5429 30.2799 43.1229 31.6648 44.2831 32.6004C45.4433 33.5322 47.1288 34 49.3433 34C51.193 34 53.0427 33.547 54.8924 32.6409C56.7421 31.7348 58.278 30.4641 59.5038 28.8361C59.9964 28.1805 60.2444 27.3628 60.2444 26.3904C60.2444 25.8343 60.1459 25.3996 59.9526 25.0866Z" fill="white"/>
<path d="M75.2677 25.4805C75.4647 25.7972 75.5596 26.2282 75.5596 26.7807C75.5596 27.8341 75.3115 28.6481 74.819 29.2263C73.8558 30.4087 72.495 31.5026 70.7365 32.5007C68.978 33.4989 67.0955 33.9998 65.0926 33.9998C62.3563 33.9998 60.233 33.2521 58.7226 31.753C57.2122 30.254 56.457 28.2024 56.457 25.5984C56.457 23.7825 56.8328 22.0956 57.5917 20.5302C58.3469 18.9648 59.3939 17.7236 60.7365 16.8028C62.0791 15.882 63.5931 15.4216 65.2896 15.4216C66.8 15.4216 68.0112 15.8746 68.9233 16.7807C69.8354 17.6867 70.2914 18.917 70.2914 20.4676C70.2914 22.2834 69.6457 23.8414 68.3578 25.1416C67.07 26.4418 64.8883 27.4768 61.8127 28.2392C62.4621 29.4473 63.7026 30.0551 65.5231 30.0551C66.6942 30.0551 68.0295 29.6425 69.5289 28.8138C71.0247 27.9851 72.3235 26.9022 73.418 25.5615C73.7318 25.1932 74.082 25.009 74.4724 25.009C74.8044 25.0053 75.0707 25.1637 75.2677 25.4805ZM59.777 12.1287C59.3064 11.6683 59.0729 10.9538 59.0729 9.97773C59.0729 8.928 59.3538 8.10296 59.912 7.51364C60.4702 6.92064 61.2217 6.62598 62.1593 6.62598C62.9911 6.62598 63.6442 6.85802 64.1112 7.31474C64.5782 7.77515 64.8153 8.49338 64.8153 9.46576C64.8153 10.5192 64.5344 11.3405 63.9762 11.9298C63.4144 12.5228 62.6664 12.8175 61.7288 12.8175C60.8934 12.8175 60.244 12.5891 59.777 12.1287ZM62.1776 20.9832C61.5136 22.114 61.1816 23.4805 61.1816 25.0864V25.1637C62.7175 24.7954 63.9288 24.2429 64.8153 23.5063C65.7018 22.7696 66.1433 21.9151 66.1433 20.9427C66.1433 20.4418 66.0083 20.044 65.7347 19.7383C65.461 19.4363 65.0889 19.2853 64.6219 19.2853C63.6551 19.289 62.8416 19.8525 62.1776 20.9832ZM67.9018 12.1287C67.4348 11.6683 67.1976 10.9538 67.1976 9.97773C67.1976 8.928 67.4786 8.10296 68.0368 7.51364C68.5949 6.92064 69.3465 6.62598 70.2841 6.62598C71.1159 6.62598 71.769 6.85802 72.236 7.31474C72.7066 7.77515 72.9401 8.49338 72.9401 9.46576C72.9401 10.5192 72.6592 11.3405 72.101 11.9298C71.5391 12.5228 70.7912 12.8175 69.8536 12.8175C69.0218 12.8175 68.3724 12.5891 67.9018 12.1287Z" fill="white"/>
<path d="M96.2458 25.4806C96.4392 25.7974 96.5377 26.2283 96.5377 26.7808C96.5377 27.8342 96.2896 28.6482 95.7971 29.2265C94.9361 30.2504 94.1882 31.0755 93.5497 31.6906C92.9113 32.3093 92.1305 32.8471 91.2038 33.3075C90.2808 33.7679 89.2301 33.9963 88.059 33.9963C86.5231 33.9963 85.4286 33.3848 84.7755 32.162C84.1261 30.9392 83.7978 29.0939 83.7978 26.6187C83.7978 25.3848 83.8489 24.1878 83.9547 23.0276H83.878C82.8346 26.5266 81.5541 29.2191 80.0291 31.1123C78.5041 33.0055 76.7675 33.9521 74.812 33.9521C73.484 33.9521 72.4406 33.4659 71.6854 32.4935C70.9302 31.5211 70.5508 30.2983 70.5508 28.825C70.5508 27.5101 70.8499 26.4456 71.4483 25.6316C72.0466 24.8176 72.893 24.4088 73.9875 24.4088C74.4837 24.4088 74.8521 24.5156 75.1002 24.7255C75.3483 24.9355 75.4468 25.2265 75.3921 25.5948C75.1841 26.8581 75.0783 27.7237 75.0783 28.1988C75.0783 29.1454 75.3118 29.6206 75.7825 29.6206C76.0415 29.6206 76.337 29.4217 76.6617 29.0276C76.9864 28.6335 77.5409 27.6721 78.3217 26.1473C78.92 24.9907 79.5402 23.6906 80.1787 22.243C80.8171 20.7992 81.3425 19.5101 81.762 18.3793C82.1779 17.2743 82.6595 16.5193 83.2068 16.1104C83.754 15.7016 84.5347 15.499 85.5526 15.499C86.5413 15.499 87.271 15.6979 87.7416 16.092C88.2086 16.4861 88.4457 17.1307 88.4457 18.0257L88.3691 20.9429C88.2633 23.1528 88.2122 24.744 88.2122 25.7163C88.2122 28.4788 88.7704 29.8563 89.8905 29.8563C90.3611 29.8563 90.8208 29.6316 91.2768 29.1859C91.7329 28.7403 92.4406 27.9226 93.4074 26.7403L94.3852 25.558C94.6989 25.1896 95.0492 25.0055 95.4395 25.0055C95.7825 25.0055 96.0524 25.1638 96.2458 25.4806Z" fill="white"/>
<path d="M94.5275 32.4235C94.1225 31.3738 93.9219 29.6905 93.9219 27.3738C93.9219 23.9557 94.4034 20.7071 95.3666 17.6316C95.6001 16.8692 95.9832 16.3093 96.5195 15.9557C97.0521 15.6021 97.8037 15.4217 98.7668 15.4217C99.2885 15.4217 99.6534 15.488 99.8613 15.6205C100.069 15.7531 100.175 16.0036 100.175 16.3682C100.175 16.7881 99.9817 17.7347 99.5877 19.208C99.5366 19.3922 99.4235 19.8121 99.2557 20.4714C99.0842 21.1307 98.931 21.8968 98.7887 22.7771C98.6464 23.6574 98.5479 24.6261 98.4969 25.6758C99.4345 21.9962 100.62 19.3664 102.054 17.7863C103.488 16.2099 105.217 15.418 107.249 15.418C108.603 15.418 109.664 15.8452 110.434 16.6997C111.2 17.5542 111.587 18.6519 111.587 19.9926C111.587 21.0975 111.346 22.0294 110.865 22.7918C110.383 23.5542 109.752 23.9373 108.971 23.9373C108.475 23.9373 108.077 23.8194 107.778 23.5837C107.479 23.348 107.329 23.0202 107.329 22.5966C107.329 22.4124 107.355 22.2025 107.406 21.9668C107.457 21.731 107.497 21.5579 107.523 21.4548C107.654 21.0607 107.72 20.6924 107.72 20.3498C107.72 19.639 107.38 19.2854 106.706 19.2854C106.184 19.2854 105.677 19.5542 105.181 20.092C104.684 20.6298 104.287 21.3554 103.988 22.2614C103.688 23.1675 103.539 24.1473 103.539 25.2007C103.539 26.6187 103.864 27.7568 104.517 28.6113C105.166 29.4659 106.104 29.8931 107.329 29.8931C108.293 29.8931 109.154 29.5727 109.909 28.9281C110.664 28.2835 111.707 27.1601 113.035 25.5542C113.349 25.1859 113.699 25.0018 114.09 25.0018C114.429 25.0018 114.695 25.1601 114.892 25.4769C115.089 25.7937 115.184 26.2246 115.184 26.7771C115.184 27.8305 114.936 28.6445 114.444 29.2228C113.272 30.6445 112.098 31.7937 110.927 32.674C109.756 33.5542 108.428 33.9962 106.943 33.9962C105.717 33.9962 104.604 33.7274 103.601 33.1859C102.598 32.6482 101.784 31.9962 101.16 31.2338C100.536 30.4714 100.131 29.7347 99.9489 29.0239C99.8978 29.2338 99.7008 29.9705 99.3615 31.2338C99.0733 32.2872 98.7413 33.0091 98.3655 33.4032C97.9861 33.7973 97.4097 33.9962 96.6253 33.9962C95.6256 33.9999 94.9325 33.4732 94.5275 32.4235Z" fill="white"/>
<path d="M172.711 25.4808C172.908 25.7975 173.003 26.2285 173.003 26.7809C173.003 27.8344 172.754 28.6484 172.258 29.2266C171.062 30.6189 169.828 31.7644 168.566 32.6594C167.304 33.5544 165.863 34.0001 164.25 34.0001C162.999 34.0001 162.076 33.5065 161.478 32.5194C160.879 31.5323 160.591 30.1732 160.617 28.4384C160.175 30.2285 159.511 31.6023 158.625 32.56C157.738 33.5213 156.789 34.0001 155.772 34.0001C153.4 34.0001 152.214 32.5784 152.214 29.7386C152.214 29.2377 152.255 28.7147 152.331 28.1622C151.55 30.0554 150.715 31.5029 149.832 32.501C148.946 33.4992 147.917 34.0001 146.746 34.0001C145.575 34.0001 144.615 33.455 143.874 32.3647C143.134 31.2745 142.762 29.9117 142.762 28.2837C142.762 26.3132 142.893 24.5047 143.152 22.862C143.411 21.2193 143.842 19.4771 144.44 17.6355C144.699 16.8472 145.064 16.28 145.534 15.9412C146.001 15.5986 146.746 15.4292 147.76 15.4292C148.333 15.4292 148.73 15.5213 148.953 15.7054C149.175 15.8896 149.285 16.1658 149.285 16.5342C149.285 16.7441 149.143 17.455 148.854 18.6631C148.595 19.6355 148.384 20.5158 148.231 21.3077C147.709 24.0701 147.45 25.908 147.45 26.8288C147.45 27.3813 147.515 27.7681 147.647 27.9927C147.778 28.2174 147.986 28.3279 148.271 28.3279C149.132 28.3279 149.971 27.3482 150.792 25.3887C151.613 23.4292 152.503 20.8472 153.469 17.6391C153.703 16.8509 153.977 16.3169 154.29 16.0406C154.604 15.7644 155.177 15.6281 156.009 15.6281C156.687 15.6281 157.154 15.7386 157.417 15.9633C157.676 16.1879 157.807 16.5747 157.807 17.1272C157.807 17.6539 157.625 18.9283 157.26 20.9541C156.738 24.0038 156.479 25.9633 156.479 26.8325C156.479 27.385 156.545 27.7717 156.676 27.9964C156.808 28.2211 157.016 28.3316 157.3 28.3316C157.691 28.3316 158.179 27.9375 158.767 27.1493C159.354 26.3611 159.978 25.164 160.642 23.5581C161.306 21.9559 161.952 19.9817 162.576 17.6428C162.784 16.8546 163.105 16.2874 163.532 15.9485C163.962 15.606 164.604 15.4366 165.465 15.4366C166.063 15.4366 166.479 15.5102 166.716 15.6539C166.95 15.7975 167.067 16.0664 167.067 16.4642C167.067 17.1235 166.742 18.9246 166.089 21.8675C165.359 25.234 164.994 27.3113 164.994 28.0996C164.994 28.6005 165.097 28.9872 165.308 29.2635C165.516 29.5397 165.79 29.676 166.129 29.676C166.651 29.676 167.267 29.3555 167.986 28.711C168.701 28.0664 169.661 27.0204 170.857 25.5765C171.171 25.2082 171.521 25.024 171.912 25.024C172.247 25.0056 172.514 25.164 172.711 25.4808Z" fill="white"/>
<path d="M190.545 22.2064C190.727 22.549 190.818 22.9836 190.818 23.5066C190.818 24.77 190.439 25.5177 189.684 25.7534C188.122 26.3059 186.4 26.6226 184.525 26.7C184.029 28.9099 183.055 30.6779 181.596 32.0039C180.136 33.3335 178.484 33.9965 176.634 33.9965C175.072 33.9965 173.737 33.6171 172.628 32.851C171.523 32.0886 170.68 31.0757 170.107 29.8123C169.534 28.549 169.246 27.1825 169.246 25.7092C169.246 23.7129 169.622 21.9302 170.381 20.3648C171.136 18.7994 172.179 17.5766 173.507 16.6963C174.835 15.816 176.306 15.374 177.922 15.374C179.899 15.374 181.497 16.0628 182.708 17.444C183.92 18.8252 184.627 20.5269 184.839 22.5527C186.065 22.4753 187.52 22.2101 189.213 21.7644C189.421 21.7129 189.604 21.6871 189.76 21.6871C190.103 21.6945 190.362 21.8639 190.545 22.2064ZM179.118 28.7921C179.731 28.107 180.14 27.1236 180.348 25.8344C179.542 25.2819 178.921 24.56 178.491 23.665C178.06 22.77 177.845 21.8234 177.845 20.8252C177.845 20.4053 177.885 19.9854 177.962 19.5619H177.769C176.725 19.5619 175.86 20.0702 175.171 21.0794C174.481 22.0923 174.135 23.5177 174.135 25.3593C174.135 26.8068 174.416 27.9118 174.974 28.6742C175.532 29.4366 176.192 29.8197 176.948 29.8197C177.783 29.8197 178.505 29.4771 179.118 28.7921Z" fill="white"/>
<path d="M188.145 32.4232C187.74 31.3735 187.539 29.6903 187.539 27.3735C187.539 23.9555 188.021 20.7068 188.984 17.6313C189.217 16.8689 189.6 16.309 190.137 15.9555C190.669 15.6019 191.421 15.4214 192.384 15.4214C192.906 15.4214 193.271 15.4877 193.479 15.6203C193.686 15.7529 193.792 16.0033 193.792 16.368C193.792 16.7879 193.599 17.7345 193.205 19.2078C192.946 20.2612 192.738 21.1783 192.581 21.9702C192.424 22.7621 192.293 23.7308 192.191 24.8873C193.052 22.6258 194.015 20.7842 195.08 19.3661C196.149 17.9444 197.196 16.9352 198.225 16.3275C199.254 15.7234 200.199 15.4214 201.056 15.4214C202.749 15.4214 203.595 16.2759 203.595 17.9849C203.595 19.0089 203.307 20.8652 202.734 23.5466C202.238 25.8339 201.994 27.3477 201.994 28.0844C201.994 29.1378 202.369 29.6608 203.128 29.6608C203.65 29.6608 204.267 29.3404 204.985 28.6958C205.7 28.0512 206.66 27.0052 207.856 25.5614C208.17 25.193 208.52 25.0089 208.911 25.0089C209.25 25.0089 209.516 25.1672 209.71 25.484C209.907 25.8008 210.002 26.2317 210.002 26.7842C210.002 27.8376 209.754 28.6516 209.257 29.2299C208.137 30.6221 206.933 31.7676 205.642 32.6626C204.354 33.5577 202.887 34.0033 201.246 34.0033C199.918 34.0033 198.914 33.6166 198.236 32.8394C197.557 32.0623 197.222 30.9389 197.222 29.4656C197.222 28.7289 197.404 27.414 197.769 25.5208C198.108 23.8634 198.276 22.7216 198.276 22.0881C198.276 21.6682 198.134 21.4582 197.846 21.4582C197.506 21.4582 197.032 21.9002 196.419 22.7805C195.806 23.6608 195.182 24.8247 194.544 26.2722C193.905 27.7197 193.391 29.2446 193.001 30.8468C192.712 32.0844 192.38 32.9168 192.005 33.3514C191.625 33.786 191.034 34.0033 190.228 34.0033C189.243 33.9997 188.546 33.473 188.145 32.4232Z" fill="white"/>
<path d="M131.959 14.3394C129.08 13.9858 126.902 15.9968 125.399 17.2933C123.403 19.0171 121.474 23.1865 122.101 26.1884C122.59 28.5346 124.607 30.693 126.924 31.227C130.003 31.9379 132.349 30.763 133.63 29.96C134.6 29.3523 137.818 26.7666 137.803 24.5014C137.73 13.286 135.822 14.8145 131.959 14.3394ZM134.279 19.448C133.429 19.448 132.739 18.5567 132.739 17.4591C132.739 16.3615 133.429 15.4701 134.279 15.4701C135.129 15.4701 135.819 16.3615 135.819 17.4591C135.819 18.5567 135.129 19.448 134.279 19.448Z" fill="white"/>
<path d="M128.309 11.1788C128.645 8.88415 127.135 6.01122 124.548 5.90809C121.538 5.78655 120.4 9.62448 121.068 11.374C122.009 13.8344 124.336 16.5674 124.825 16.4164C125.584 16.1807 128.018 13.1751 128.309 11.1788Z" fill="white"/>
<path d="M121.148 14.2616C119.692 13.9558 117.704 14.3721 117.634 16.5157C117.561 18.8803 120.152 19.1161 120.998 18.9872C122.206 18.803 123.406 17.8269 124.22 16.8951C124.303 16.7993 124.296 16.6557 124.209 16.5599C123.731 16.0442 122.202 14.4826 121.148 14.2616Z" fill="white"/>
<path d="M125.668 29.6099C123.585 28.1771 122.399 25.9672 122.103 23.9893C122.067 24.1292 122.023 24.2655 121.987 24.4055C121.596 25.9819 121.538 29.3926 122.151 29.9745C122.585 30.3871 125.712 31.4257 127.627 31.481C128.094 31.4957 128.492 31.481 128.867 31.4478C127.871 31.0169 126.988 30.5196 125.668 29.6099Z" fill="white"/>
<path d="M129.672 25.7276C126.943 23.2745 126.436 22.2801 125.947 19.5803C125.739 18.4421 125.951 17.4035 126.078 16.6558C125.268 17.3629 124.575 18.1143 124.006 18.9136C123.9 19.525 122.912 22.3427 125.6 25.7791C128.344 29.2893 131.562 30.1364 132.747 30.4863C133.298 30.188 133.831 29.8454 134.345 29.4366C134.714 29.1456 135.061 28.8436 135.385 28.5379C134.386 28.3353 131.821 27.6613 129.672 25.7276Z" fill="white"/>
<path d="M138.99 20.6486C138.928 19.1237 138.425 17.7499 137.48 16.5344C136.568 15.3595 135.48 14.5934 134.218 14.2398C132.956 13.8862 131.664 13.8935 130.347 14.2619C129.687 14.446 129.052 14.6965 128.439 15.0132C128.297 16.0261 128.034 19.2858 130.066 21.6541C132.157 24.0924 136.079 26.0372 137.239 26.3687C137.483 26.004 137.702 25.632 137.899 25.2527C138.687 23.7094 139.052 22.1735 138.99 20.6486ZM134.959 17.8457C134.656 18.0188 134.295 17.8567 134.014 17.6504C133.612 17.3595 133.262 17.5584 134.338 16.7333C134.503 16.6081 135.028 16.667 135.199 16.9764C135.371 17.2821 135.265 17.6725 134.959 17.8457Z" fill="white"/>
<path d="M139.652 33.8714C139.652 33.8714 137.827 32.1292 138.893 28.1771C139.396 26.3097 141.249 24.8364 141.249 24.8364C141.249 24.8364 139.217 25.3337 137.743 27.3005C136.003 29.621 135.715 31.4036 135.624 31.9156C135.533 32.4276 134.974 32.1145 135.423 30.8438C135.613 30.3024 135.77 29.9082 135.77 29.9082C135.77 29.9082 134.46 30.6081 133.967 31.5031C133.406 32.5233 133.34 32.8659 133.34 33.1937C133.34 33.5215 133.369 32.6117 132.822 31.9745C132.523 31.6246 131.786 31.4515 131.786 31.4515C131.786 31.4515 132.289 31.9893 132.304 32.4828C132.333 33.5252 131.727 33.6578 131.727 33.6578C131.727 33.6578 131.187 33.8567 131.012 33.1606C130.779 32.2287 129.476 32.4276 129.476 32.4276C129.476 32.4276 129.973 32.6154 129.878 33.3152C129.787 34.0151 128.922 33.8162 128.922 33.8162L137.765 33.8677H139.652V33.8714Z" fill="white"/>
<path d="M118.219 33.8714C118.219 33.8714 120.043 32.1292 118.978 28.1771C118.474 26.3097 116.621 24.8364 116.621 24.8364C116.621 24.8364 118.653 25.3337 120.127 27.3005C121.867 29.621 122.156 31.4036 122.247 31.9156C122.338 32.4276 122.896 32.1145 122.447 30.8438C122.258 30.3024 122.101 29.9083 122.101 29.9083C122.101 29.9083 123.411 30.6081 123.903 31.5031C124.465 32.5234 124.531 32.8659 124.531 33.1937C124.531 33.5215 124.501 32.6118 125.049 31.9746C125.348 31.6246 126.085 31.4515 126.085 31.4515C126.085 31.4515 125.581 31.9893 125.567 32.4828C125.538 33.5252 126.143 33.6578 126.143 33.6578C126.143 33.6578 126.683 33.8567 126.858 33.1606C127.092 32.2287 128.394 32.4276 128.394 32.4276C128.394 32.4276 127.898 32.6154 127.993 33.3153C128.084 34.0151 128.949 33.8162 128.949 33.8162L120.105 33.8677H118.219V33.8714Z" fill="white"/>
</g>
<defs>
<clipPath id="clip0">
<rect width="210" height="34" fill="white"/>
</clipPath>
</defs>
</svg>
