<svg width="40" height="38" viewBox="0 0 40 38" fill="none" xmlns="http://www.w3.org/2000/svg">
<path fill-rule="evenodd" clip-rule="evenodd" d="M40 17.4056C40 27.0185 31.045 34.8113 20 34.8113C18.0191 34.814 16.0465 34.5581 14.1325 34.0504C12.6725 34.7864 9.32 36.1988 3.68 37.1188C3.18 37.1984 2.8 36.6812 2.9975 36.2187C3.8825 34.1399 4.6825 31.37 4.9225 28.8436C1.86 25.7852 0 21.7819 0 17.4056C0 7.79276 8.955 0 20 0C31.045 0 40 7.79276 40 17.4056ZM17.985 14.3373C18.2025 14.6456 18.3925 14.9838 18.5525 15.3344C19.6225 17.6916 19.535 21.2448 16.1975 24.5494C15.9938 24.7469 15.7219 24.8595 15.4375 24.8641C15.153 24.8687 14.8776 24.765 14.6675 24.5743C14.5651 24.482 14.4827 24.3698 14.4255 24.2447C14.3683 24.1196 14.3375 23.9841 14.3349 23.8467C14.3323 23.7092 14.3581 23.5727 14.4105 23.4456C14.463 23.3184 14.5411 23.2033 14.64 23.1072C15.6875 22.0728 16.32 21.0409 16.6625 20.0737C15.99 20.484 15.1925 20.7202 14.3375 20.7202C11.9375 20.7202 10 18.8652 10 16.5776C10 14.29 11.94 12.4326 14.335 12.4326C15.0125 12.4326 15.655 12.5818 16.225 12.8454L16.245 12.8553C16.6675 13.0294 17.0625 13.3079 17.4175 13.6609C17.63 13.8673 17.82 14.0936 17.985 14.3373ZM27.5 20.0737C26.8275 20.484 26.03 20.7202 25.175 20.7202C22.78 20.7202 20.8375 18.8652 20.8375 16.5776C20.8375 14.29 22.78 12.4326 25.1725 12.4326C25.85 12.4326 26.4925 12.5818 27.0625 12.8454L27.0825 12.8553C27.5075 13.0294 27.9 13.3079 28.255 13.6609C28.4675 13.8673 28.6575 14.0936 28.8225 14.3373C29.04 14.6456 29.2325 14.9838 29.3925 15.3344C30.4625 17.6916 30.3725 21.2448 27.0375 24.5494C26.8337 24.7476 26.5612 24.8607 26.2762 24.8653C25.9912 24.8699 25.7152 24.7658 25.505 24.5743C25.4026 24.482 25.3202 24.3698 25.263 24.2447C25.2058 24.1196 25.175 23.9841 25.1724 23.8467C25.1698 23.7092 25.1956 23.5727 25.248 23.4456C25.3005 23.3184 25.3786 23.2033 25.4775 23.1072C26.5275 22.0728 27.1575 21.0409 27.5025 20.0737H27.5Z" fill="#222528"/>
</svg>
