<svg width="158" height="158" viewBox="0 0 158 158" fill="none" xmlns="http://www.w3.org/2000/svg">
<g filter="url(#filter0_d)">
<rect x="9" y="5" width="140" height="140" rx="14" fill="white"/>
</g>
<g clip-path="url(#clip0)">
<path d="M21 76.0001V118.352C21 126.994 28.006 134 36.6482 134H79L84.2403 104.792L79 76.0001L50 69.8851L21 76.0001Z" fill="url(#paint0_radial)"/>
<path d="M121.352 18H79.0001L76.1641 47L79.0001 76L108 81.2339L137 76V33.6482C137 25.006 129.994 18 121.352 18V18Z" fill="url(#paint1_linear)"/>
<path d="M36.6482 18C28.006 18 21 25.006 21 33.6482V76H79V18H36.6482Z" fill="url(#paint2_linear)"/>
<path d="M29.6916 55.2308C31.5977 55.2308 33.1429 53.989 33.1429 52.4572C33.1429 50.9254 31.5977 49.6836 29.6916 49.6836C27.7855 49.6836 26.2402 50.9254 26.2402 52.4572C26.2402 53.989 27.7855 55.2308 29.6916 55.2308Z" fill="#FB99AC"/>
<path d="M70.3083 55.2308C72.2144 55.2308 73.7596 53.989 73.7596 52.4572C73.7596 50.9254 72.2144 49.6836 70.3083 49.6836C68.4022 49.6836 66.8569 50.9254 66.8569 52.4572C66.8569 53.989 68.4022 55.2308 70.3083 55.2308Z" fill="#FB99AC"/>
<path d="M35.6086 52.4572C39.3885 52.4572 42.4526 49.393 42.4526 45.6132C42.4526 41.8333 39.3885 38.7692 35.6086 38.7692C31.8288 38.7692 28.7646 41.8333 28.7646 45.6132C28.7646 49.393 31.8288 52.4572 35.6086 52.4572Z" fill="white"/>
<path d="M64.3914 52.4572C68.1712 52.4572 71.2354 49.393 71.2354 45.6132C71.2354 41.8333 68.1712 38.7692 64.3914 38.7692C60.6115 38.7692 57.5474 41.8333 57.5474 45.6132C57.5474 49.393 60.6115 52.4572 64.3914 52.4572Z" fill="white"/>
<path d="M35.6087 49.6922C37.8615 49.6922 39.6877 47.866 39.6877 45.6132C39.6877 43.3605 37.8615 41.5343 35.6087 41.5343C33.356 41.5343 31.5298 43.3605 31.5298 45.6132C31.5298 47.866 33.356 49.6922 35.6087 49.6922Z" fill="#383842"/>
<path d="M64.391 49.6922C66.6437 49.6922 68.4699 47.866 68.4699 45.6132C68.4699 43.3605 66.6437 41.5343 64.391 41.5343C62.1382 41.5343 60.312 43.3605 60.312 45.6132C60.312 47.866 62.1382 49.6922 64.391 49.6922Z" fill="#383842"/>
<path d="M49.9999 52.6752C48.7874 52.6752 47.5747 52.2168 46.5857 51.2996C46.1178 50.8656 46.0901 50.1348 46.5238 49.6668C46.958 49.1989 47.6887 49.1714 48.1566 49.6049C49.242 50.6112 50.7576 50.6112 51.8429 49.6049C52.3104 49.1716 53.0418 49.1989 53.4757 49.6668C53.9095 50.1348 53.882 50.8656 53.4138 51.2996C52.425 52.2165 51.2123 52.6752 49.9999 52.6752Z" fill="#383842"/>
<path d="M79 76V134H121.352C129.994 134 137 126.994 137 118.352V76H79Z" fill="url(#paint3_linear)"/>
<path d="M121.352 129.378C120.076 129.378 119.041 128.344 119.041 127.068C119.041 125.792 120.076 124.757 121.352 124.757C122.041 124.757 122.731 124.642 123.401 124.416C124.61 124.007 125.922 124.657 126.33 125.866C126.738 127.075 126.089 128.386 124.88 128.795C123.732 129.182 122.545 129.378 121.352 129.378Z" fill="#FDB0BF"/>
<path d="M128.728 123.535C127.531 123.092 126.92 121.762 127.363 120.565C127.549 120.064 127.67 119.537 127.725 118.998C127.853 117.728 128.985 116.805 130.256 116.931C131.526 117.06 132.451 118.193 132.323 119.463C132.229 120.391 132.018 121.302 131.697 122.17C131.256 123.361 129.93 123.98 128.728 123.535Z" fill="#FDB0BF"/>
<path d="M87.6916 55.2307C89.5977 55.2307 91.1429 53.9889 91.1429 52.4571C91.1429 50.9253 89.5977 49.6835 87.6916 49.6835C85.7855 49.6835 84.2402 50.9253 84.2402 52.4571C84.2402 53.9889 85.7855 55.2307 87.6916 55.2307Z" fill="#FB99AC"/>
<path d="M128.308 55.2307C130.214 55.2307 131.76 53.9889 131.76 52.4571C131.76 50.9253 130.214 49.6835 128.308 49.6835C126.402 49.6835 124.857 50.9253 124.857 52.4571C124.857 53.9889 126.402 55.2307 128.308 55.2307Z" fill="#FB99AC"/>
<path d="M93.6087 52.4571C97.3836 52.4571 100.444 49.3968 100.444 45.6218C100.444 41.8469 97.3836 38.7866 93.6087 38.7866C89.8337 38.7866 86.7734 41.8469 86.7734 45.6218C86.7734 49.3968 89.8337 52.4571 93.6087 52.4571Z" fill="#D6D5D8"/>
<path d="M86.7734 45.9565C86.9523 49.5768 89.944 52.4572 93.6087 52.4572C97.2733 52.4572 100.265 49.5768 100.444 45.9565H86.7734Z" fill="white"/>
<path d="M89.5449 45.9565C89.7194 48.0485 91.4714 49.6921 93.6086 49.6921C95.7456 49.6921 97.4976 48.0485 97.6721 45.9565H89.5449Z" fill="#383842"/>
<path d="M122.391 52.4571C126.166 52.4571 129.226 49.3968 129.226 45.6218C129.226 41.8469 126.166 38.7866 122.391 38.7866C118.616 38.7866 115.556 41.8469 115.556 45.6218C115.556 49.3968 118.616 52.4571 122.391 52.4571Z" fill="#D6D5D8"/>
<path d="M115.556 45.9565C115.735 49.5768 118.726 52.4572 122.391 52.4572C126.056 52.4572 129.047 49.5768 129.226 45.9565H115.556Z" fill="white"/>
<path d="M118.327 45.9565C118.502 48.0485 120.254 49.6921 122.391 49.6921C124.528 49.6921 126.28 48.0485 126.454 45.9565H118.327Z" fill="#383842"/>
<path d="M110.628 53.2534C110.207 53.2534 109.784 53.1005 109.45 52.7913C108.583 51.9872 107.417 51.9872 106.549 52.7913C105.847 53.4418 104.751 53.4004 104.1 52.6989C103.449 51.9969 103.491 50.9004 104.192 50.2495C106.398 48.2044 109.6 48.2044 111.807 50.2495C112.508 50.9002 112.55 51.9969 111.899 52.6989C111.558 53.067 111.094 53.2534 110.628 53.2534Z" fill="#383842"/>
<path d="M87.6916 113.231C89.5977 113.231 91.1429 111.989 91.1429 110.457C91.1429 108.925 89.5977 107.683 87.6916 107.683C85.7855 107.683 84.2402 108.925 84.2402 110.457C84.2402 111.989 85.7855 113.231 87.6916 113.231Z" fill="#FB99AC"/>
<path d="M128.308 113.231C130.214 113.231 131.76 111.989 131.76 110.457C131.76 108.925 130.214 107.683 128.308 107.683C126.402 107.683 124.857 108.925 124.857 110.457C124.857 111.989 126.402 113.231 128.308 113.231Z" fill="#FB99AC"/>
<path d="M93.6087 110.457C97.3885 110.457 100.453 107.393 100.453 103.613C100.453 99.8332 97.3885 96.769 93.6087 96.769C89.8288 96.769 86.7646 99.8332 86.7646 103.613C86.7646 107.393 89.8288 110.457 93.6087 110.457Z" fill="white"/>
<path d="M122.391 110.457C126.171 110.457 129.235 107.393 129.235 103.613C129.235 99.8332 126.171 96.769 122.391 96.769C118.612 96.769 115.547 99.8332 115.547 103.613C115.547 107.393 118.612 110.457 122.391 110.457Z" fill="white"/>
<path d="M95.8698 106.023C95.2581 106.024 94.6649 105.699 94.3495 105.125C94.1323 104.73 93.7591 104.687 93.6089 104.687C93.459 104.687 93.086 104.73 92.8688 105.125C92.4078 105.964 91.3536 106.27 90.5153 105.809C89.6765 105.348 89.3703 104.294 89.8313 103.455C90.5885 102.077 92.0362 101.221 93.6089 101.221C95.1816 101.221 96.6291 102.077 97.387 103.455C97.848 104.294 97.5421 105.347 96.7033 105.809C96.4382 105.954 96.1521 106.023 95.8698 106.023Z" fill="#383842"/>
<path d="M120.13 106.023C119.848 106.023 119.562 105.954 119.297 105.809C118.458 105.347 118.152 104.294 118.613 103.455C119.371 102.077 120.818 101.221 122.391 101.221H122.391C123.964 101.221 125.411 102.077 126.169 103.455C126.63 104.294 126.324 105.347 125.485 105.809C124.647 106.27 123.593 105.964 123.131 105.125C122.914 104.73 122.541 104.687 122.391 104.687C122.241 104.687 121.868 104.73 121.651 105.125C121.335 105.699 120.742 106.023 120.13 106.023Z" fill="#383842"/>
<path d="M110.697 112.811H105.303C103.799 112.811 102.58 111.592 102.58 110.088C102.58 108.584 103.799 107.365 105.303 107.365H110.697C112.201 107.365 113.42 108.584 113.42 110.088C113.42 111.592 112.201 112.811 110.697 112.811Z" fill="#383842"/>
<path d="M29.6916 113.231C31.5977 113.231 33.1429 111.989 33.1429 110.457C33.1429 108.925 31.5977 107.683 29.6916 107.683C27.7855 107.683 26.2402 108.925 26.2402 110.457C26.2402 111.989 27.7855 113.231 29.6916 113.231Z" fill="#FB99AC"/>
<path d="M70.3083 113.231C72.2144 113.231 73.7596 111.989 73.7596 110.457C73.7596 108.925 72.2144 107.683 70.3083 107.683C68.4022 107.683 66.8569 108.925 66.8569 110.457C66.8569 111.989 68.4022 113.231 70.3083 113.231Z" fill="#FB99AC"/>
<path d="M35.6086 110.457C39.3885 110.457 42.4526 107.393 42.4526 103.613C42.4526 99.8332 39.3885 96.769 35.6086 96.769C31.8288 96.769 28.7646 99.8332 28.7646 103.613C28.7646 107.393 31.8288 110.457 35.6086 110.457Z" fill="white"/>
<path d="M42.3255 104.577C42.8436 102.385 41.4868 100.188 39.2948 99.6698C37.1029 99.1517 34.906 100.509 34.3879 102.7C33.8697 104.892 35.2266 107.089 37.4185 107.607C39.6104 108.126 41.8074 106.769 42.3255 104.577Z" fill="#383842"/>
<path d="M64.3914 110.457C68.1712 110.457 71.2354 107.393 71.2354 103.613C71.2354 99.8332 68.1712 96.769 64.3914 96.769C60.6115 96.769 57.5474 99.8332 57.5474 103.613C57.5474 107.393 60.6115 110.457 64.3914 110.457Z" fill="white"/>
<path d="M70.0113 106.493C71.604 104.9 71.604 102.318 70.0113 100.725C68.4186 99.1324 65.8364 99.1324 64.2437 100.725C62.651 102.318 62.651 104.9 64.2437 106.493C65.8364 108.085 68.4186 108.085 70.0113 106.493Z" fill="#383842"/>
<path d="M49.9997 112.811C51.6909 112.811 53.0619 111.015 53.0619 108.801C53.0619 106.587 51.6909 104.791 49.9997 104.791C48.3085 104.791 46.9375 106.587 46.9375 108.801C46.9375 111.015 48.3085 112.811 49.9997 112.811Z" fill="#383842"/>
<path d="M130.068 35.9589C128.792 35.9589 127.758 34.9253 127.757 33.6496C127.757 33.0744 127.681 32.5062 127.532 31.9606C127.195 30.7295 127.92 29.4588 129.151 29.1221C130.382 28.7861 131.653 29.5105 131.989 30.7417C132.247 31.6834 132.378 32.6608 132.378 33.6468C132.379 34.923 131.345 35.958 130.069 35.9589C130.069 35.9589 130.068 35.9589 130.068 35.9589Z" fill="#D3C1E7"/>
<path d="M124.099 27.865C123.242 27.4588 122.292 27.2439 121.35 27.2432C120.074 27.2423 119.04 26.2068 119.041 24.9306C119.042 23.6551 120.076 22.6217 121.352 22.6217H121.354C122.974 22.6229 124.608 22.9919 126.079 23.6886C127.232 24.2351 127.724 25.613 127.177 26.7663C126.633 27.9138 125.259 28.4138 124.099 27.865Z" fill="#D3C1E7"/>
</g>
<defs>
<filter id="filter0_d" x="0" y="0" width="158" height="158" filterUnits="userSpaceOnUse" color-interpolation-filters="sRGB">
<feFlood flood-opacity="0" result="BackgroundImageFix"/>
<feColorMatrix in="SourceAlpha" type="matrix" values="0 0 0 0 0 0 0 0 0 0 0 0 0 0 0 0 0 0 127 0"/>
<feOffset dy="4"/>
<feGaussianBlur stdDeviation="4.5"/>
<feColorMatrix type="matrix" values="0 0 0 0 0.854167 0 0 0 0 0.854167 0 0 0 0 0.854167 0 0 0 1 0"/>
<feBlend mode="normal" in2="BackgroundImageFix" result="effect1_dropShadow"/>
<feBlend mode="normal" in="SourceGraphic" in2="effect1_dropShadow" result="shape"/>
</filter>
<radialGradient id="paint0_radial" cx="0" cy="0" r="1" gradientUnits="userSpaceOnUse" gradientTransform="translate(52.6202 101.943) scale(31.8397)">
<stop offset="0.0223" stop-color="#F7F0A9"/>
<stop offset="0.9994" stop-color="#F4E46A"/>
</radialGradient>
<linearGradient id="paint1_linear" x1="76.1641" y1="49.6169" x2="137" y2="49.6169" gradientUnits="userSpaceOnUse">
<stop stop-color="#A27CCF"/>
<stop offset="0.9777" stop-color="#8959C3"/>
</linearGradient>
<linearGradient id="paint2_linear" x1="21" y1="47" x2="79" y2="47" gradientUnits="userSpaceOnUse">
<stop offset="0.0206" stop-color="#77E4D3"/>
<stop offset="1" stop-color="#01C2A0"/>
</linearGradient>
<linearGradient id="paint3_linear" x1="108" y1="134" x2="108" y2="76" gradientUnits="userSpaceOnUse">
<stop stop-color="#FD869C"/>
<stop offset="0.9788" stop-color="#F3385D"/>
</linearGradient>
<clipPath id="clip0">
<rect width="116" height="116" fill="white" transform="translate(21 18)"/>
</clipPath>
</defs>
</svg>
