<svg width="158" height="158" viewBox="0 0 158 158" fill="none" xmlns="http://www.w3.org/2000/svg">
<g filter="url(#filter0_d)">
<rect x="9" y="5" width="140" height="140" rx="14" fill="white"/>
</g>
<g clip-path="url(#clip0)">
<path d="M103.341 111.754C100.503 109.382 97.8495 105.84 97.8495 100.888L81.1864 95.684L72.9355 100.888C77.2557 113.795 90.0138 120.411 96.6322 123.054C99.0307 124.012 101.766 123.492 103.649 121.724C106.566 118.984 106.412 114.321 103.341 111.754Z" fill="url(#paint0_linear)"/>
<path d="M97.8495 100.888L81.1864 95.684L72.9355 100.888C73.8213 103.534 75.0654 105.911 76.5345 108.049H99.9949C98.7195 106.093 97.8495 103.722 97.8495 100.888Z" fill="#8959C3"/>
<path d="M123.884 70.7688C124.702 68.61 125.154 66.2707 125.154 63.8251C125.154 53.5709 117.279 45.1609 107.248 44.3004C104.783 36.2926 97.3272 30.472 88.511 30.472C84.0513 30.472 79.9417 31.964 76.6478 34.4723C73.3539 31.964 69.2441 30.472 64.7846 30.472C55.9682 30.472 48.5126 36.2928 46.0477 44.3004C36.0166 45.1609 28.1416 53.5709 28.1416 63.8251C28.1416 66.2707 28.5931 68.61 29.4114 70.7688C24.406 73.4826 21 78.7839 21 84.8649C21 93.701 28.187 100.888 37.0231 100.888H116.272C125.108 100.888 132.295 93.701 132.295 84.8649C132.295 78.7839 128.889 73.4826 123.884 70.7688Z" fill="url(#paint1_linear)"/>
<path d="M74.4535 50.3404C72.3838 50.3299 71.0919 49.8661 70.2871 49.312C69.4416 48.73 69.0267 47.6854 69.2037 46.6742C70.0713 41.7166 72.802 37.4006 76.6476 34.472C75.6465 33.7097 74.5704 33.0417 73.4313 32.4808C69.2604 36.0608 66.3722 41.0948 65.5605 46.7887C65.4014 47.9052 64.747 48.9063 63.7703 49.4707C62.9417 49.9495 61.7217 50.3299 59.9348 50.34C58.9617 50.3456 58.1103 51.086 58.0722 52.0587C58.0322 53.0801 58.8486 53.9206 59.861 53.9206C63.7846 53.9206 65.9925 52.5864 67.1937 51.3601C68.3949 52.5862 70.6028 53.9206 74.5264 53.9206C75.5383 53.9206 76.3542 53.0808 76.3152 52.0601C76.2776 51.0879 75.4267 50.3454 74.4535 50.3404Z" fill="#FD75BE"/>
<path d="M43.2281 85.7203C44.8178 90.7475 47.918 92.8658 50.3389 93.7586C51.7299 91.6821 52.6518 89.2661 52.9436 86.6607C53.0538 85.6758 53.9256 84.9577 54.9112 85.0619C55.9004 85.1662 56.6135 86.0571 56.5035 87.0455C55.8679 92.7563 52.7668 97.7316 48.2945 100.888H37.0229C41.2216 100.888 45.046 99.2616 47.9057 96.6089C45.1774 95.3196 41.6426 92.58 39.8143 86.7996C39.5165 85.8571 40.0388 84.851 40.9814 84.5529C41.9244 84.2556 42.9298 84.7779 43.2281 85.7203Z" fill="#FD75BE"/>
<path d="M28.4429 67.237C28.657 68.4567 28.9821 69.6377 29.4106 70.7688C31.6761 69.5404 34.2693 68.8418 37.0228 68.8418C40.7045 68.8418 44.0988 70.0923 46.8048 72.189C47.513 72.7376 48.5217 72.6624 49.1552 72.0289C49.9139 71.2702 49.8476 70.0102 48.9991 69.3535C47.3457 68.0733 45.4821 67.052 43.4691 66.3496C45.1356 65.0239 47.5191 63.9596 50.9282 63.6878C51.9138 63.6093 52.6491 62.7467 52.5706 61.7613C52.4918 60.7759 51.6357 60.0367 50.6438 60.1189C44.8188 60.5832 41.3516 63.0024 39.3186 65.3993C38.5652 65.3112 37.7994 65.2627 37.0223 65.2627C33.9451 65.2625 31.0344 65.9733 28.4429 67.237Z" fill="#FD75BE"/>
<path d="M135.91 55.1091H132.265C131.777 53.3433 131.076 51.666 130.191 50.1061L132.77 47.5277C133.976 46.3209 133.976 44.3645 132.77 43.1577L128.75 39.1384C127.544 37.9316 125.587 37.9316 124.38 39.1384L121.802 41.7168C120.242 40.8323 118.565 40.1313 116.799 39.6429V35.9978C116.799 34.2913 115.416 32.9077 113.709 32.9077H108.025C106.318 32.9077 104.935 34.291 104.935 35.9978V39.6426C103.169 40.1311 101.491 40.832 99.9316 41.7166L97.3532 39.1382C96.1464 37.9314 94.19 37.9314 92.9832 39.1382L88.9639 43.1575C87.7571 44.3643 87.7571 46.3207 88.9639 47.5275L91.5423 50.1059C90.6577 51.6657 89.9568 53.3431 89.4683 55.1089H85.8235C84.117 55.1089 82.7334 56.4922 82.7334 58.199V63.8832C82.7334 65.5897 84.1167 66.9733 85.8235 66.9733H89.4683C89.9568 68.739 90.6577 70.4164 91.5423 71.9763L88.9639 74.5547C87.7571 75.7615 87.7571 77.7178 88.9639 78.9246L92.9832 82.9439C94.19 84.1507 96.1464 84.1507 97.3532 82.9439L99.9316 80.3656C101.491 81.2501 103.169 81.951 104.935 82.4395V86.0843C104.935 87.7909 106.318 89.1744 108.025 89.1744H113.709C115.415 89.1744 116.799 87.7911 116.799 86.0843V82.4395C118.565 81.951 120.242 81.2501 121.802 80.3656L124.38 82.9439C125.587 84.1507 127.544 84.1507 128.75 82.9439L132.77 78.9246C133.976 77.7178 133.976 75.7615 132.77 74.5547L130.191 71.9763C131.076 70.4164 131.777 68.739 132.265 66.9733H135.91C137.617 66.9733 139 65.5899 139 63.8832V58.199C139 56.4924 137.617 55.1091 135.91 55.1091ZM110.867 72.1815C104.714 72.1815 99.7263 67.1938 99.7263 61.0411C99.7263 54.8884 104.714 49.9007 110.867 49.9007C117.019 49.9007 122.007 54.8884 122.007 61.0411C122.007 67.1938 117.019 72.1815 110.867 72.1815Z" fill="url(#paint2_radial)"/>
<path d="M126.214 56.0783C125.335 56.0783 124.493 55.5835 124.09 54.7373C123.503 53.5042 122.757 52.3639 121.872 51.3482C121.02 50.3692 121.122 48.8846 122.101 48.032C123.081 47.1797 124.565 47.2822 125.418 48.2612C126.583 49.5989 127.564 51.0981 128.335 52.7172C128.893 53.8895 128.395 55.2921 127.223 55.8499C126.896 56.0048 126.552 56.0783 126.214 56.0783Z" fill="#C7C5CB"/>
<path d="M116.496 47.3253C116.238 47.3253 115.975 47.2823 115.718 47.192C115.053 46.9588 114.36 46.7722 113.659 46.6375C112.385 46.3926 111.55 45.1601 111.795 43.8854C112.04 42.6104 113.273 41.7762 114.547 42.0207C115.474 42.1989 116.392 42.4464 117.274 42.7559C118.499 43.1856 119.144 44.5271 118.714 45.7523C118.375 46.7198 117.466 47.3253 116.496 47.3253Z" fill="#C7C5CB"/>
</g>
<defs>
<filter id="filter0_d" x="0" y="0" width="158" height="158" filterUnits="userSpaceOnUse" color-interpolation-filters="sRGB">
<feFlood flood-opacity="0" result="BackgroundImageFix"/>
<feColorMatrix in="SourceAlpha" type="matrix" values="0 0 0 0 0 0 0 0 0 0 0 0 0 0 0 0 0 0 127 0"/>
<feOffset dy="4"/>
<feGaussianBlur stdDeviation="4.5"/>
<feColorMatrix type="matrix" values="0 0 0 0 0.854167 0 0 0 0 0.854167 0 0 0 0 0.854167 0 0 0 1 0"/>
<feBlend mode="normal" in2="BackgroundImageFix" result="effect1_dropShadow"/>
<feBlend mode="normal" in="SourceGraphic" in2="effect1_dropShadow" result="shape"/>
</filter>
<linearGradient id="paint0_linear" x1="89.3394" y1="95.684" x2="89.3394" y2="123.528" gradientUnits="userSpaceOnUse">
<stop offset="0.0223" stop-color="#8959C3"/>
<stop offset="1" stop-color="#A27CCF"/>
</linearGradient>
<linearGradient id="paint1_linear" x1="41.6634" y1="112.155" x2="111.632" y2="42.187" gradientUnits="userSpaceOnUse">
<stop stop-color="#FD86C8"/>
<stop offset="0.9788" stop-color="#FFB1DB"/>
</linearGradient>
<radialGradient id="paint2_radial" cx="0" cy="0" r="1" gradientUnits="userSpaceOnUse" gradientTransform="translate(110.867 61.0411) scale(28.1334)">
<stop offset="0.0223" stop-color="#C1BFC5"/>
<stop offset="1" stop-color="#8D889D"/>
</radialGradient>
<clipPath id="clip0">
<rect width="118" height="118" fill="white" transform="translate(21 18)"/>
</clipPath>
</defs>
</svg>
