<svg width="158" height="158" viewBox="0 0 158 158" fill="none" xmlns="http://www.w3.org/2000/svg">
<g filter="url(#filter0_d)">
<rect x="9" y="5" width="140" height="140" rx="14" fill="white"/>
</g>
<g clip-path="url(#clip0)">
<path d="M107.928 143.641L114.026 146C114.026 126.37 98.6726 115.224 98.6726 115.224H60.3276C60.3276 115.224 45.4153 126.05 44.9844 145.155L54.6193 142.443L56.2043 146H102.796L107.928 143.641Z" fill="url(#paint0_linear)"/>
<path d="M31.6367 80.565C31.6367 67.1808 37.161 55.0646 46.0464 46.37C45.0944 45.5565 44.2896 44.676 43.6093 43.7677C39.9286 38.8526 41.3013 31.8271 46.515 28.5831C48.8014 27.1603 51.5436 26.6805 54.1844 27.2089C63.5861 29.0899 78.5825 29.7079 89.3541 29.8978C106.078 30.1924 120.581 41.5896 124.773 57.7822C126.367 63.9408 127.363 71.4397 127.363 80.565H31.6367Z" fill="url(#paint1_linear)"/>
<path d="M39.896 90.9399C45.626 90.9399 50.2711 86.2949 50.2711 80.5649C50.2711 74.8349 45.626 70.1898 39.896 70.1898C34.1661 70.1898 29.521 74.8349 29.521 80.5649C29.521 86.2949 34.1661 90.9399 39.896 90.9399Z" fill="url(#paint2_linear)"/>
<path d="M119.104 90.9399C124.834 90.9399 129.479 86.2949 129.479 80.5649C129.479 74.8349 124.834 70.1898 119.104 70.1898C113.374 70.1898 108.729 74.8349 108.729 80.5649C108.729 86.2949 113.374 90.9399 119.104 90.9399Z" fill="url(#paint3_linear)"/>
<path d="M119.104 80.5657C119.104 102.437 101.374 120.169 79.5 120.169C57.6263 120.169 39.8965 102.437 39.8965 80.5657C39.8965 69.8035 44.1874 60.045 51.1531 52.9088C53.536 50.4677 57.1749 49.7338 60.3446 50.9949C83.5635 60.2333 87.6268 51.8549 105.97 54.2031C108.319 54.504 110.456 55.7492 111.826 57.6809C116.411 64.1441 119.104 72.0403 119.104 80.5657Z" fill="url(#paint4_linear)"/>
<path d="M96.9767 40.5972C94.8726 39.9391 92.687 39.5326 90.4805 39.3892C89.18 39.3045 88.1944 38.1816 88.279 36.8812C88.3636 35.5807 89.4854 34.5967 90.787 34.6794C93.3673 34.8473 95.9237 35.3228 98.3857 36.0927C99.6295 36.4817 100.322 37.8054 99.9334 39.0495C99.5456 40.2895 98.2238 40.9874 96.9767 40.5972Z" fill="#F3CAC0"/>
<path d="M106.389 45.6266C105.576 44.9617 104.725 44.3603 103.859 43.8392C102.742 43.1672 102.381 41.7172 103.054 40.6004C103.725 39.4834 105.175 39.1229 106.292 39.7949C107.352 40.4326 108.39 41.1655 109.378 41.9734C110.386 42.7986 110.535 44.2854 109.71 45.2943C108.882 46.3062 107.395 46.4497 106.389 45.6266Z" fill="#F3CAC0"/>
<path d="M52.4443 92.9086C54.9837 92.9086 57.0424 91.2543 57.0424 89.2135C57.0424 87.1727 54.9837 85.5183 52.4443 85.5183C49.9048 85.5183 47.8462 87.1727 47.8462 89.2135C47.8462 91.2543 49.9048 92.9086 52.4443 92.9086Z" fill="#FB99AC"/>
<path d="M106.556 92.9086C109.095 92.9086 111.154 91.2543 111.154 89.2135C111.154 87.1727 109.095 85.5183 106.556 85.5183C104.016 85.5183 101.958 87.1727 101.958 89.2135C101.958 91.2543 104.016 92.9086 106.556 92.9086Z" fill="#FB99AC"/>
<path d="M60.3274 89.2136C65.3631 89.2136 69.4454 85.1313 69.4454 80.0956C69.4454 75.0599 65.3631 70.9777 60.3274 70.9777C55.2917 70.9777 51.2095 75.0599 51.2095 80.0956C51.2095 85.1313 55.2917 89.2136 60.3274 89.2136Z" fill="white"/>
<path d="M98.6726 89.2136C103.708 89.2136 107.791 85.1313 107.791 80.0956C107.791 75.0599 103.708 70.9777 98.6726 70.9777C93.6369 70.9777 89.5547 75.0599 89.5547 80.0956C89.5547 85.1313 93.6369 89.2136 98.6726 89.2136Z" fill="white"/>
<path d="M60.3272 85.5297C63.3285 85.5297 65.7614 83.0968 65.7614 80.0956C65.7614 77.0943 63.3285 74.6614 60.3272 74.6614C57.326 74.6614 54.8931 77.0943 54.8931 80.0956C54.8931 83.0968 57.326 85.5297 60.3272 85.5297Z" fill="#383842"/>
<path d="M98.672 85.5297C101.673 85.5297 104.106 83.0968 104.106 80.0956C104.106 77.0943 101.673 74.6614 98.672 74.6614C95.6708 74.6614 93.2378 77.0943 93.2378 80.0956C93.2378 83.0968 95.6708 85.5297 98.672 85.5297Z" fill="#383842"/>
<path d="M79.4997 89.1468C77.9697 89.1468 76.4398 88.5682 75.1915 87.4109C74.7115 86.966 74.683 86.2159 75.128 85.7359C75.5732 85.2559 76.3234 85.2274 76.803 85.6726C78.3905 87.1447 80.6084 87.1447 82.1959 85.6726C82.6757 85.2279 83.4257 85.2559 83.8709 85.7359C84.3159 86.2159 84.2876 86.9657 83.8074 87.4109C82.5595 88.5682 81.0296 89.1468 79.4997 89.1468Z" fill="#383842"/>
<path d="M79.4999 101.746C74.9963 101.746 71.4922 105.659 71.9877 110.135L73.419 123.067H85.5807L87.012 110.135C87.5075 105.659 84.0034 101.746 79.4999 101.746Z" fill="url(#paint5_linear)"/>
<path d="M72.2573 112.575L73.4186 123.067H85.5804L86.7417 112.575C84.3723 112.204 81.953 112.011 79.4995 112.011C77.046 112.011 74.6267 112.204 72.2573 112.575Z" fill="#D86743"/>
<path d="M44.9918 124.125C41.4137 121.391 36.2531 122.372 33.9288 126.229C31.6045 130.087 33.148 135.108 37.2373 136.994L49.0529 142.442L55.3298 132.026L44.9918 124.125Z" fill="url(#paint6_linear)"/>
<path d="M114.008 124.125C117.586 121.391 122.747 122.372 125.071 126.229C127.395 130.087 125.852 135.108 121.762 136.994L109.947 142.442L103.67 132.026L114.008 124.125Z" fill="url(#paint7_linear)"/>
<path d="M37.9878 137.34L49.0531 142.443L55.33 132.026L46.726 125.45C43.2425 128.884 40.2798 132.883 37.9878 137.34Z" fill="#D86743"/>
<path d="M121.012 137.34C118.72 132.884 115.758 128.884 112.274 125.45L103.67 132.026L109.947 142.442L121.012 137.34Z" fill="#D86743"/>
<path d="M56.2044 146C60.7124 137.76 69.4643 132.16 79.5002 132.16C89.536 132.16 98.2877 137.761 102.796 146H117.017C111.714 130.37 96.8993 119.091 79.4999 119.091C62.1006 119.091 47.2858 130.37 41.9829 146H56.2044Z" fill="url(#paint8_linear)"/>
<path d="M54.6437 140.443C55.9519 139.907 56.5783 138.413 56.0429 137.104C55.5075 135.796 54.0129 135.17 52.7047 135.705C51.3965 136.241 50.77 137.735 51.3054 139.043C51.8409 140.352 53.3354 140.978 54.6437 140.443Z" fill="#EEDE2C"/>
<path d="M107.815 138.98C108.351 137.672 107.724 136.178 106.416 135.642C105.108 135.107 103.613 135.733 103.078 137.041C102.542 138.35 103.169 139.844 104.477 140.38C105.785 140.915 107.28 140.289 107.815 138.98Z" fill="#EEDE2C"/>
<path d="M79.4999 128.184C80.9127 128.184 82.0579 127.038 82.0579 125.626C82.0579 124.213 80.9127 123.068 79.4999 123.068C78.0872 123.068 76.9419 124.213 76.9419 125.626C76.9419 127.038 78.0872 128.184 79.4999 128.184Z" fill="#EEDE2C"/>
</g>
<defs>
<filter id="filter0_d" x="0" y="0" width="158" height="158" filterUnits="userSpaceOnUse" color-interpolation-filters="sRGB">
<feFlood flood-opacity="0" result="BackgroundImageFix"/>
<feColorMatrix in="SourceAlpha" type="matrix" values="0 0 0 0 0 0 0 0 0 0 0 0 0 0 0 0 0 0 127 0"/>
<feOffset dy="4"/>
<feGaussianBlur stdDeviation="4.5"/>
<feColorMatrix type="matrix" values="0 0 0 0 0.854167 0 0 0 0 0.854167 0 0 0 0 0.854167 0 0 0 1 0"/>
<feBlend mode="normal" in2="BackgroundImageFix" result="effect1_dropShadow"/>
<feBlend mode="normal" in="SourceGraphic" in2="effect1_dropShadow" result="shape"/>
</filter>
<linearGradient id="paint0_linear" x1="79.5053" y1="115.224" x2="79.5053" y2="146" gradientUnits="userSpaceOnUse">
<stop stop-color="#78C5E6"/>
<stop offset="0.9788" stop-color="#BBE3F4"/>
</linearGradient>
<linearGradient id="paint1_linear" x1="31.6367" y1="53.7824" x2="127.363" y2="53.7824" gradientUnits="userSpaceOnUse">
<stop stop-color="#D66743"/>
<stop offset="0.9788" stop-color="#E79580"/>
</linearGradient>
<linearGradient id="paint2_linear" x1="29.521" y1="80.5649" x2="50.2711" y2="80.5649" gradientUnits="userSpaceOnUse">
<stop offset="0.0212" stop-color="#FDC8BB"/>
<stop offset="1" stop-color="#FDDACC"/>
</linearGradient>
<linearGradient id="paint3_linear" x1="108.729" y1="80.5649" x2="129.479" y2="80.5649" gradientUnits="userSpaceOnUse">
<stop offset="0.0212" stop-color="#FDC8BB"/>
<stop offset="1" stop-color="#FDDACC"/>
</linearGradient>
<linearGradient id="paint4_linear" x1="39.8965" y1="85.2783" x2="119.104" y2="85.2783" gradientUnits="userSpaceOnUse">
<stop offset="0.0212" stop-color="#FDC8BB"/>
<stop offset="1" stop-color="#FDDACC"/>
</linearGradient>
<linearGradient id="paint5_linear" x1="79.4999" y1="123.067" x2="79.4999" y2="101.746" gradientUnits="userSpaceOnUse">
<stop stop-color="#D66743"/>
<stop offset="0.9788" stop-color="#E79580"/>
</linearGradient>
<linearGradient id="paint6_linear" x1="44.0862" y1="142.442" x2="44.0862" y2="122.571" gradientUnits="userSpaceOnUse">
<stop stop-color="#D66743"/>
<stop offset="0.9788" stop-color="#E79580"/>
</linearGradient>
<linearGradient id="paint7_linear" x1="114.914" y1="142.442" x2="114.914" y2="122.571" gradientUnits="userSpaceOnUse">
<stop stop-color="#D66743"/>
<stop offset="0.9788" stop-color="#E79580"/>
</linearGradient>
<linearGradient id="paint8_linear" x1="79.4999" y1="146" x2="79.4999" y2="119.091" gradientUnits="userSpaceOnUse">
<stop stop-color="#D66743"/>
<stop offset="0.9788" stop-color="#E79580"/>
</linearGradient>
<clipPath id="clip0">
<rect width="119" height="119" fill="white" transform="translate(20 27)"/>
</clipPath>
</defs>
</svg>
