<svg width="158" height="158" viewBox="0 0 158 158" fill="none" xmlns="http://www.w3.org/2000/svg">
<g filter="url(#filter0_d)">
<rect x="9" y="5" width="140" height="140" rx="14" fill="white"/>
</g>
<g clip-path="url(#clip0)">
<path d="M110.895 70.9506C124.208 70.9506 135 60.1582 135 46.8451C135 33.532 124.208 22.7396 110.895 22.7396C97.5814 22.7396 86.7891 33.532 86.7891 46.8451C86.7891 60.1582 97.5814 70.9506 110.895 70.9506Z" fill="url(#paint0_linear)"/>
<path d="M46.1055 70.9506C59.4185 70.9506 70.2109 60.1582 70.2109 46.8451C70.2109 33.532 59.4185 22.7396 46.1055 22.7396C32.7924 22.7396 22 33.532 22 46.8451C22 60.1582 32.7924 70.9506 46.1055 70.9506Z" fill="url(#paint1_linear)"/>
<path d="M29.9694 49.7635C31.484 49.7635 32.7118 48.7769 32.7118 47.5598C32.7118 46.3427 31.484 45.3561 29.9694 45.3561C28.4549 45.3561 27.2271 46.3427 27.2271 47.5598C27.2271 48.7769 28.4549 49.7635 29.9694 49.7635Z" fill="#FD75BE"/>
<path d="M62.2414 49.7635C63.756 49.7635 64.9838 48.7769 64.9838 47.5598C64.9838 46.3427 63.756 45.3561 62.2414 45.3561C60.7268 45.3561 59.499 46.3427 59.499 47.5598C59.499 48.7769 60.7268 49.7635 62.2414 49.7635Z" fill="#FD75BE"/>
<path d="M34.6709 47.5599C37.6742 47.5599 40.1088 45.1252 40.1088 42.1219C40.1088 39.1186 37.6742 36.684 34.6709 36.684C31.6676 36.684 29.2329 39.1186 29.2329 42.1219C29.2329 45.1252 31.6676 47.5599 34.6709 47.5599Z" fill="white"/>
<path d="M57.5395 47.5599C60.5428 47.5599 62.9775 45.1252 62.9775 42.1219C62.9775 39.1186 60.5428 36.684 57.5395 36.684C54.5362 36.684 52.1016 39.1186 52.1016 42.1219C52.1016 45.1252 54.5362 47.5599 57.5395 47.5599Z" fill="white"/>
<path d="M36.4672 44.3483C35.8713 44.3483 35.2935 44.032 34.9862 43.4729C34.918 43.3491 34.8122 43.2863 34.6709 43.2863C34.5295 43.2863 34.4235 43.3491 34.3555 43.4729C33.9064 44.29 32.8795 44.5883 32.0629 44.1392C31.2457 43.6899 30.9475 42.6634 31.3966 41.8463C32.0529 40.6517 33.3077 39.9098 34.6709 39.9098C36.0341 39.9098 37.2888 40.6517 37.9452 41.8463C38.3942 42.6634 38.096 43.6899 37.2789 44.1392C37.0209 44.281 36.7422 44.3483 36.4672 44.3483Z" fill="#383842"/>
<path d="M59.3366 44.3483C58.7407 44.3483 58.1629 44.0323 57.8556 43.4731C57.7874 43.3493 57.6814 43.2865 57.54 43.2865C57.3989 43.2865 57.2927 43.3493 57.2247 43.4731C56.7756 44.29 55.7489 44.5883 54.9318 44.1392C54.1147 43.6899 53.8167 42.6634 54.2657 41.8463C54.9226 40.6519 56.1771 39.9098 57.54 39.9098C58.9033 39.9098 60.1577 40.6517 60.8146 41.8463C61.2637 42.6632 60.9656 43.6899 60.1485 44.1392C59.8905 44.2808 59.6116 44.3483 59.3366 44.3483Z" fill="#383842"/>
<path d="M48.2484 49.43H43.963C42.7681 49.43 41.7993 48.4614 41.7993 47.2663C41.7993 46.0715 42.7679 45.1027 43.963 45.1027H48.2484C49.4432 45.1027 50.4121 46.0713 50.4121 47.2663C50.4121 48.4614 49.4435 49.43 48.2484 49.43Z" fill="#383842"/>
<path d="M102.057 64.2906C103.434 62.9141 103.6 60.7227 102.414 59.1786C98.541 54.1365 93.11 50.3508 86.8491 48.5426C87.1933 53.4892 89.0297 58.0242 91.9112 61.701L97.3129 64.8911C98.8462 65.7965 100.798 65.5493 102.057 64.2906Z" fill="#8959C3"/>
<path d="M78.5 101.606C91.8131 101.606 102.605 90.8132 102.605 77.5001C102.605 64.187 91.8131 53.3947 78.5 53.3947C65.1869 53.3947 54.3945 64.187 54.3945 77.5001C54.3945 90.8132 65.1869 101.606 78.5 101.606Z" fill="url(#paint2_linear)"/>
<path d="M81.0031 62.3526C80.278 62.2214 79.5359 62.1419 78.7971 62.1163C77.564 62.0735 76.599 61.0389 76.642 59.8058C76.6848 58.5727 77.7103 57.6131 78.9524 57.6507C79.9053 57.6838 80.8631 57.7865 81.7986 57.9557C83.0128 58.1754 83.8189 59.3378 83.5992 60.552C83.379 61.7696 82.2139 62.5719 81.0031 62.3526Z" fill="#ADEDE3"/>
<path d="M90.145 67.7198C89.2851 66.6762 88.2907 65.7852 87.1893 65.0717C86.1536 64.4009 85.858 63.0176 86.5286 61.982C87.1994 60.9465 88.5826 60.6505 89.6183 61.3215C91.1044 62.284 92.4419 63.4807 93.5933 64.8781C94.3778 65.8303 94.2421 67.2385 93.2899 68.023C92.342 68.8043 90.9331 68.6762 90.145 67.7198Z" fill="#ADEDE3"/>
<path d="M69.3045 88.9392C68.0023 87.3698 65.6201 87.2854 64.1781 88.7274C63.1451 89.7604 62.8656 91.328 63.4778 92.6545L65.9976 98.1131C68.8287 99.834 72.0424 100.988 75.4815 101.418C74.4129 96.756 72.261 92.5025 69.3045 88.9392Z" fill="#01AB8B"/>
<path d="M46.1055 132.261C59.4185 132.261 70.2109 121.468 70.2109 108.155C70.2109 94.8419 59.4185 84.0496 46.1055 84.0496C32.7924 84.0496 22 94.8419 22 108.155C22 121.468 32.7924 132.261 46.1055 132.261Z" fill="url(#paint3_linear)"/>
<path d="M62.3402 84.0496C63.857 84.0496 65.0866 83.0614 65.0866 81.8425C65.0866 80.6235 63.857 79.6354 62.3402 79.6354C60.8234 79.6354 59.5938 80.6235 59.5938 81.8425C59.5938 83.0614 60.8234 84.0496 62.3402 84.0496Z" fill="#FB99AC"/>
<path d="M94.66 84.0496C96.1768 84.0496 97.4065 83.0614 97.4065 81.8425C97.4065 80.6235 96.1768 79.6354 94.66 79.6354C93.1432 79.6354 91.9136 80.6235 91.9136 81.8425C91.9136 83.0614 93.1432 84.0496 94.66 84.0496Z" fill="#FB99AC"/>
<path d="M67.0486 81.8424C70.0564 81.8424 72.4947 79.4041 72.4947 76.3964C72.4947 73.3886 70.0564 70.9503 67.0486 70.9503C64.0408 70.9503 61.6025 73.3886 61.6025 76.3964C61.6025 79.4041 64.0408 81.8424 67.0486 81.8424Z" fill="white"/>
<path d="M89.9514 81.8424C92.9592 81.8424 95.3975 79.4041 95.3975 76.3964C95.3975 73.3886 92.9592 70.9503 89.9514 70.9503C86.9437 70.9503 84.5054 73.3886 84.5054 76.3964C84.5054 79.4041 86.9437 81.8424 89.9514 81.8424Z" fill="white"/>
<path d="M67.0487 79.6423C68.8413 79.6423 70.2946 78.189 70.2946 76.3963C70.2946 74.6036 68.8413 73.1504 67.0487 73.1504C65.256 73.1504 63.8027 74.6036 63.8027 76.3963C63.8027 78.189 65.256 79.6423 67.0487 79.6423Z" fill="#383842"/>
<path d="M89.9515 79.6423C91.7442 79.6423 93.1974 78.189 93.1974 76.3963C93.1974 74.6036 91.7442 73.1504 89.9515 73.1504C88.1588 73.1504 86.7056 74.6036 86.7056 76.3963C86.7056 78.189 88.1588 79.6423 89.9515 79.6423Z" fill="#383842"/>
<path d="M78.5 82.223C77.4853 82.223 76.4708 81.8392 75.6431 81.0718C75.1872 80.6493 75.1602 79.9371 75.5827 79.4813C76.0057 79.0255 76.7175 78.9985 77.1733 79.4212C77.9668 80.1568 79.0331 80.1568 79.8265 79.4212C80.2826 78.9987 80.9944 79.0255 81.4171 79.4813C81.8396 79.9371 81.8128 80.6491 81.3568 81.0718C80.5293 81.8394 79.5148 82.223 78.5 82.223Z" fill="#383842"/>
<path d="M29.9694 113.445C31.484 113.445 32.7118 112.458 32.7118 111.241C32.7118 110.024 31.484 109.037 29.9694 109.037C28.4549 109.037 27.2271 110.024 27.2271 111.241C27.2271 112.458 28.4549 113.445 29.9694 113.445Z" fill="#FB99AC"/>
<path d="M62.2414 113.445C63.756 113.445 64.9838 112.458 64.9838 111.241C64.9838 110.024 63.756 109.037 62.2414 109.037C60.7268 109.037 59.499 110.024 59.499 111.241C59.499 112.458 60.7268 113.445 62.2414 113.445Z" fill="#FB99AC"/>
<path d="M46.1053 113.111C44.9215 113.111 43.7379 112.716 42.7502 111.924C41.8342 111.191 41.6863 109.853 42.4204 108.937C43.1542 108.021 44.4918 107.874 45.4077 108.607C45.8183 108.936 46.392 108.936 46.8026 108.607C47.7183 107.874 49.0559 108.021 49.7899 108.937C50.5237 109.853 50.3761 111.191 49.4602 111.924C48.4726 112.716 47.2891 113.111 46.1053 113.111Z" fill="#383842"/>
<path d="M40.0972 105.44C39.9153 102.659 37.5999 100.439 34.8141 100.367C31.7457 100.289 29.2334 102.753 29.2334 105.803C29.2334 105.958 29.2399 106.111 29.2525 106.263C29.33 107.183 30.3278 107.731 31.1526 107.316C31.3255 107.23 31.5078 107.151 31.6944 107.078L31.6899 107.076L34.6711 105.378L37.6523 107.076L37.6478 107.078C37.8342 107.151 38.0163 107.229 38.1888 107.316C39.023 107.735 40.0177 107.169 40.092 106.238C40.1125 105.977 40.1147 105.711 40.0972 105.44Z" fill="white"/>
<path d="M34.6712 106.532C35.7591 106.532 36.7776 106.73 37.6524 107.076C37.8196 106.685 37.9121 106.256 37.9121 105.803C37.9121 104.013 36.4612 102.562 34.6712 102.562C32.8812 102.562 31.4302 104.013 31.4302 105.803C31.4302 106.256 31.5227 106.685 31.6899 107.076C32.5647 106.73 33.5833 106.532 34.6712 106.532Z" fill="#383842"/>
<path d="M62.9658 105.44C62.7839 102.659 60.4686 100.439 57.6827 100.367C54.6142 100.289 52.1021 102.753 52.1021 105.803C52.1021 105.958 52.1086 106.111 52.1214 106.263C52.1988 107.183 53.1965 107.731 54.0215 107.316C54.1944 107.23 54.3767 107.151 54.5635 107.078L54.5588 107.076L57.54 105.505L60.5212 107.076L60.5165 107.078C60.7029 107.151 60.885 107.229 61.0574 107.316C61.8916 107.735 62.8863 107.169 62.9604 106.238C62.9813 105.977 62.9834 105.711 62.9658 105.44Z" fill="white"/>
<path d="M57.5398 106.532C58.6277 106.532 59.6463 106.73 60.521 107.076C60.6883 106.685 60.7808 106.256 60.7808 105.803C60.7808 104.013 59.3298 102.562 57.5398 102.562C55.7498 102.562 54.2988 104.013 54.2988 105.803C54.2988 106.256 54.3913 106.685 54.5586 107.076C55.4333 106.73 56.4519 106.532 57.5398 106.532Z" fill="#383842"/>
<path d="M110.895 132.261C124.208 132.261 135 121.468 135 108.155C135 94.8419 124.208 84.0496 110.895 84.0496C97.5814 84.0496 86.7891 94.8419 86.7891 108.155C86.7891 121.468 97.5814 132.261 110.895 132.261Z" fill="url(#paint4_linear)"/>
<path d="M111.418 127.803C111.391 127.803 111.364 127.803 111.337 127.803C110.103 127.796 109.108 126.791 109.114 125.557C109.12 124.327 110.12 123.334 111.348 123.334C111.372 123.334 111.395 123.335 111.418 123.335C112.197 123.335 112.991 123.257 113.778 123.103C114.987 122.867 116.162 123.657 116.399 124.868C116.635 126.079 115.844 127.253 114.633 127.489C113.565 127.697 112.484 127.803 111.418 127.803Z" fill="#BDE5F6"/>
<path d="M119.01 123.463C118.321 122.439 118.593 121.051 119.617 120.362C120.789 119.573 121.877 118.631 122.851 117.562C123.682 116.649 125.095 116.583 126.007 117.414C126.919 118.244 126.985 119.657 126.155 120.57C124.94 121.904 123.58 123.081 122.111 124.069C121.097 124.753 119.705 124.495 119.01 123.463Z" fill="#BDE5F6"/>
<path d="M95.1208 112.874C96.6354 112.874 97.8632 111.887 97.8632 110.67C97.8632 109.453 96.6354 108.466 95.1208 108.466C93.6062 108.466 92.3784 109.453 92.3784 110.67C92.3784 111.887 93.6062 112.874 95.1208 112.874Z" fill="#FB99AC"/>
<path d="M127.392 112.874C128.907 112.874 130.135 111.887 130.135 110.67C130.135 109.453 128.907 108.466 127.392 108.466C125.878 108.466 124.65 109.453 124.65 110.67C124.65 111.887 125.878 112.874 127.392 112.874Z" fill="#FB99AC"/>
<path d="M99.8221 110.67C102.822 110.67 105.253 108.239 105.253 105.239C105.253 102.24 102.822 99.8081 99.8221 99.8081C96.8226 99.8081 94.3911 102.24 94.3911 105.239C94.3911 108.239 96.8226 110.67 99.8221 110.67Z" fill="#CBCBCB"/>
<path d="M94.3911 105.505C94.5334 108.382 96.9104 110.67 99.8221 110.67C102.734 110.67 105.111 108.381 105.253 105.505H94.3911Z" fill="white"/>
<path d="M96.5933 105.505C96.7319 107.167 98.1239 108.473 99.8219 108.473C101.52 108.473 102.912 107.167 103.05 105.505H96.5933Z" fill="#383842"/>
<path d="M122.691 110.67C125.69 110.67 128.122 108.239 128.122 105.239C128.122 102.24 125.69 99.8081 122.691 99.8081C119.691 99.8081 117.26 102.24 117.26 105.239C117.26 108.239 119.691 110.67 122.691 110.67Z" fill="#CBCBCB"/>
<path d="M117.26 105.505C117.402 108.382 119.779 110.67 122.691 110.67C125.602 110.67 127.979 108.381 128.122 105.505H117.26Z" fill="white"/>
<path d="M119.462 105.505C119.601 107.167 120.993 108.473 122.691 108.473C124.388 108.473 125.78 107.167 125.919 105.505H119.462Z" fill="#383842"/>
<path d="M109.168 111.614C108.714 111.614 108.262 111.432 107.93 111.073C107.296 110.389 107.336 109.321 108.02 108.687C109.896 106.949 112.618 106.949 114.493 108.687C115.177 109.321 115.217 110.39 114.583 111.073C113.95 111.757 112.881 111.797 112.197 111.163C111.626 110.634 110.887 110.633 110.315 111.163C109.991 111.465 109.579 111.614 109.168 111.614Z" fill="#383842"/>
<path d="M94.7585 49.6273C96.2731 49.6273 97.5009 48.6407 97.5009 47.4236C97.5009 46.2065 96.2731 45.2198 94.7585 45.2198C93.2439 45.2198 92.0161 46.2065 92.0161 47.4236C92.0161 48.6407 93.2439 49.6273 94.7585 49.6273Z" fill="#FB99AC"/>
<path d="M127.03 49.6273C128.545 49.6273 129.773 48.6407 129.773 47.4236C129.773 46.2065 128.545 45.2198 127.03 45.2198C125.516 45.2198 124.288 46.2065 124.288 47.4236C124.288 48.6407 125.516 49.6273 127.03 49.6273Z" fill="#FB99AC"/>
<path d="M99.4599 47.4238C102.463 47.4238 104.898 44.9891 104.898 41.9858C104.898 38.9825 102.463 36.5479 99.4599 36.5479C96.4566 36.5479 94.022 38.9825 94.022 41.9858C94.022 44.9891 96.4566 47.4238 99.4599 47.4238Z" fill="white"/>
<path d="M99.5445 44.2831C100.81 43.0176 100.81 40.9658 99.5445 39.7003C98.279 38.4348 96.2273 38.4348 94.9618 39.7003C93.6963 40.9658 93.6963 43.0176 94.9618 44.2831C96.2273 45.5486 98.279 45.5486 99.5445 44.2831Z" fill="#383842"/>
<path d="M122.329 47.4238C125.332 47.4238 127.767 44.9891 127.767 41.9858C127.767 38.9825 125.332 36.5479 122.329 36.5479C119.326 36.5479 116.891 38.9825 116.891 41.9858C116.891 44.9891 119.326 47.4238 122.329 47.4238Z" fill="white"/>
<path d="M123.304 42.7608C123.716 41.0192 122.638 39.2736 120.896 38.8619C119.155 38.4502 117.409 39.5284 116.997 41.27C116.586 43.0116 117.664 44.7572 119.405 45.1689C121.147 45.5806 122.893 44.5025 123.304 42.7608Z" fill="#383842"/>
<path d="M112.288 43.3064H109.501C108.949 43.3064 108.462 43.6693 108.306 44.1989C107.816 45.8678 107.252 49.2936 110.895 49.2936C114.537 49.2936 113.973 45.8678 113.483 44.1989C113.327 43.6693 112.84 43.3064 112.288 43.3064Z" fill="#383842"/>
</g>
<defs>
<filter id="filter0_d" x="0" y="0" width="158" height="158" filterUnits="userSpaceOnUse" color-interpolation-filters="sRGB">
<feFlood flood-opacity="0" result="BackgroundImageFix"/>
<feColorMatrix in="SourceAlpha" type="matrix" values="0 0 0 0 0 0 0 0 0 0 0 0 0 0 0 0 0 0 127 0"/>
<feOffset dy="4"/>
<feGaussianBlur stdDeviation="4.5"/>
<feColorMatrix type="matrix" values="0 0 0 0 0.854167 0 0 0 0 0.854167 0 0 0 0 0.854167 0 0 0 1 0"/>
<feBlend mode="normal" in2="BackgroundImageFix" result="effect1_dropShadow"/>
<feBlend mode="normal" in="SourceGraphic" in2="effect1_dropShadow" result="shape"/>
</filter>
<linearGradient id="paint0_linear" x1="110.895" y1="70.9506" x2="110.895" y2="22.7396" gradientUnits="userSpaceOnUse">
<stop offset="0.0223" stop-color="#8959C3"/>
<stop offset="1" stop-color="#A27CCF"/>
</linearGradient>
<linearGradient id="paint1_linear" x1="46.1055" y1="22.7396" x2="46.1055" y2="70.9506" gradientUnits="userSpaceOnUse">
<stop offset="0.0212" stop-color="#FFB1DB"/>
<stop offset="1" stop-color="#FD86C8"/>
</linearGradient>
<linearGradient id="paint2_linear" x1="78.5" y1="101.606" x2="78.5" y2="53.3947" gradientUnits="userSpaceOnUse">
<stop offset="0.0206" stop-color="#77E4D3"/>
<stop offset="1" stop-color="#01C2A0"/>
</linearGradient>
<linearGradient id="paint3_linear" x1="46.1055" y1="132.261" x2="46.1055" y2="84.0496" gradientUnits="userSpaceOnUse">
<stop offset="0.0223" stop-color="#F7F0A9"/>
<stop offset="0.9994" stop-color="#F4E46A"/>
</linearGradient>
<linearGradient id="paint4_linear" x1="110.895" y1="132.261" x2="110.895" y2="84.0496" gradientUnits="userSpaceOnUse">
<stop offset="0.000558036" stop-color="#5BD4FB"/>
<stop offset="0.9777" stop-color="#A2E4FD"/>
</linearGradient>
<clipPath id="clip0">
<rect width="113" height="113" fill="white" transform="translate(22 21)"/>
</clipPath>
</defs>
</svg>
