<svg width="121" height="121" viewBox="0 0 121 121" fill="none" xmlns="http://www.w3.org/2000/svg">
<g clip-path="url(#clip0)">
<path d="M3.97856 108.55C13.0938 106.626 18.8396 101.04 18.8396 101.04H37.1494V113.789L29.9381 121H7.7956C5.14614 119.818 3.00526 117.769 1.37802 115.707C-0.669577 113.112 0.744098 109.233 3.97856 108.55Z" fill="url(#paint0_linear)"/>
<path d="M119.999 79.6792C118.634 74.4887 117.371 66.3331 117.371 53.9224H103.662L88.4707 87.6582L95.77 102.434C101.234 102.434 105.658 101.608 109.229 100.348C117.663 97.3722 122.274 88.3285 119.999 79.6792Z" fill="url(#paint1_linear)"/>
<path d="M63.4458 107.845C33.7113 107.845 9.52051 83.6553 9.52051 53.9224C9.52051 24.1894 33.7116 0 63.4458 0C93.18 0 117.371 24.1896 117.371 53.9224L63.4458 107.845Z" fill="url(#paint2_linear)"/>
<path d="M103.663 121C103.663 100.861 88.4709 87.6582 88.4709 87.6582L40.2353 91.5833C36.1567 90.0987 32.3683 88.3686 29.1264 86.7103C28.538 86.4123 27.9721 86.1144 27.4235 85.8216C25.6733 84.8856 24.117 83.9969 22.8011 83.215L11.9692 89.5109L10.2822 100.778C12.2705 101.999 14.8301 103.494 17.8312 105.075C21.5996 107.061 26.0703 109.181 30.993 111.073C30.34 114.099 29.938 117.418 29.938 121H103.663Z" fill="url(#paint3_linear)"/>
<path d="M18.8406 66.2029C25.6235 66.2029 31.1221 60.7043 31.1221 53.9214C31.1221 47.1385 25.6235 41.6399 18.8406 41.6399C12.0577 41.6399 6.55908 47.1385 6.55908 53.9214C6.55908 60.7043 12.0577 66.2029 18.8406 66.2029Z" fill="url(#paint4_radial)"/>
<path d="M108.052 66.2029C114.834 66.2029 120.333 60.7043 120.333 53.9214C120.333 47.1385 114.834 41.6399 108.052 41.6399C101.269 41.6399 95.77 47.1385 95.77 53.9214C95.77 60.7043 101.269 66.2029 108.052 66.2029Z" fill="url(#paint5_radial)"/>
<path d="M49.1074 96.9473C53.4909 92.5638 59.5105 91.1082 64.1649 92.8627C65.9192 97.5173 64.4638 103.537 60.0803 107.92C56.3395 111.661 51.4072 113.27 47.1485 112.57C45.764 112.343 44.6847 111.264 44.4574 109.879C43.7581 105.62 45.3666 100.688 49.1074 96.9473Z" fill="url(#paint6_linear)"/>
<path d="M64.1653 92.8627C65.9195 97.5173 64.4642 103.537 60.0807 107.92C58.6562 109.345 57.0583 110.458 55.3913 111.254C52.0248 108.774 49.8354 104.784 49.8354 100.292V96.262C54.1408 92.4172 59.7632 91.2034 64.1653 92.8627Z" fill="#8959C3"/>
<path d="M62.7269 92.8627C67.3816 91.1084 73.4009 92.5638 77.7844 96.9473C81.5593 100.722 83.1629 105.71 82.415 109.995C82.1884 111.293 81.1577 112.324 79.8597 112.55C75.5748 113.298 70.5866 111.695 66.8117 107.92C62.428 103.537 60.9726 97.5173 62.7269 92.8627Z" fill="url(#paint7_linear)"/>
<path d="M62.7269 92.8627C60.9727 97.5173 62.428 103.537 66.8115 107.92C68.236 109.345 69.8338 110.458 71.5008 111.254C74.8674 108.774 77.0567 104.784 77.0567 100.292V96.262C72.7516 92.4172 67.1292 91.2034 62.7269 92.8627Z" fill="#8959C3"/>
<path d="M70.7726 94.4608V100.292C70.7726 104.338 67.4924 107.619 63.4456 107.619C59.3991 107.619 56.1187 104.338 56.1187 100.292V94.4608H70.7726Z" fill="url(#paint8_linear)"/>
<path d="M103.003 33.2909C101.69 30.7788 98.9493 29.3377 96.1451 29.7503C92.6879 30.2592 89.1124 30.5265 85.4523 30.5265C69.7211 30.5265 55.5535 25.5975 45.6322 17.7222C43.3127 15.8809 40.0522 15.823 37.638 17.5382C26.2616 25.6216 18.8394 38.9061 18.8394 53.9224C18.8394 78.5545 38.8109 98.5261 63.4457 98.5261C88.0805 98.5261 108.052 78.5545 108.052 53.9224C108.052 46.4787 106.228 39.4607 103.003 33.2909Z" fill="url(#paint9_linear)"/>
<path d="M90.9146 19.6955C89.1065 18.1411 86.9669 16.7045 84.5541 15.4261C83.3251 14.7748 82.8567 13.2505 83.508 12.0214C84.1593 10.7924 85.6826 10.3238 86.9126 10.9753C89.6556 12.429 92.1072 14.0779 94.1984 15.8763C95.253 16.7831 95.3728 18.3734 94.466 19.428C93.5626 20.4789 91.9727 20.6054 90.9146 19.6955Z" fill="#FDE7CA"/>
<path d="M75.8108 11.7821C74.5509 11.3945 73.2616 11.0667 71.9783 10.8075C70.6148 10.5323 69.7326 9.20394 70.0078 7.8404C70.2831 6.47686 71.6109 5.59491 72.975 5.86993C74.4209 6.16183 75.8734 6.53109 77.2919 6.96761C78.6215 7.37665 79.3675 8.78598 78.9585 10.1155C78.5504 11.4417 77.1422 12.1921 75.8108 11.7821Z" fill="#FDE7CA"/>
<path d="M5.63986 97.747C5.87318 97.9133 7.53151 99.0874 10.282 100.778L22.8009 83.2147C19.9039 81.487 18.1761 80.2731 18.1241 80.2358C13.2932 76.7976 6.58569 77.9197 3.14008 82.7481C-0.310592 87.5816 0.809019 94.2966 5.63986 97.747Z" fill="url(#paint10_linear)"/>
<path d="M93.5235 67.8805C96.3467 67.8805 98.6354 66.0413 98.6354 63.7725C98.6354 61.5038 96.3467 59.6646 93.5235 59.6646C90.7003 59.6646 88.4116 61.5038 88.4116 63.7725C88.4116 66.0413 90.7003 67.8805 93.5235 67.8805Z" fill="#FB99AC"/>
<path d="M33.3677 67.8805C36.191 67.8805 38.4796 66.0413 38.4796 63.7725C38.4796 61.5038 36.191 59.6646 33.3677 59.6646C30.5445 59.6646 28.2559 61.5038 28.2559 63.7725C28.2559 66.0413 30.5445 67.8805 33.3677 67.8805Z" fill="#FB99AC"/>
<path d="M84.7598 63.7725C90.3579 63.7725 94.8961 59.2344 94.8961 53.6363C94.8961 48.0381 90.3579 43.5 84.7598 43.5C79.1617 43.5 74.6235 48.0381 74.6235 53.6363C74.6235 59.2344 79.1617 63.7725 84.7598 63.7725Z" fill="white"/>
<path d="M42.1314 63.7725C47.7295 63.7725 52.2677 59.2344 52.2677 53.6363C52.2677 48.0381 47.7295 43.5 42.1314 43.5C36.5333 43.5 31.9951 48.0381 31.9951 53.6363C31.9951 59.2344 36.5333 63.7725 42.1314 63.7725Z" fill="white"/>
<path d="M84.7596 59.6776C88.0961 59.6776 90.8009 56.9728 90.8009 53.6363C90.8009 50.2997 88.0961 47.5949 84.7596 47.5949C81.4231 47.5949 78.7183 50.2997 78.7183 53.6363C78.7183 56.9728 81.4231 59.6776 84.7596 59.6776Z" fill="#383842"/>
<path d="M42.1317 59.6776C45.4682 59.6776 48.173 56.9728 48.173 53.6363C48.173 50.2997 45.4682 47.5949 42.1317 47.5949C38.7951 47.5949 36.0903 50.2997 36.0903 53.6363C36.0903 56.9728 38.7951 59.6776 42.1317 59.6776Z" fill="#383842"/>
<path d="M63.4457 63.5855C61.772 63.5855 60.0982 62.9525 58.733 61.6866C58.2449 61.2339 58.216 60.4715 58.6686 59.9834C59.1213 59.4954 59.8839 59.4669 60.3718 59.9189C62.1815 61.5969 64.71 61.5974 66.5199 59.9189C67.008 59.4669 67.7704 59.4951 68.2231 59.9834C68.6755 60.4715 68.6468 61.2339 68.1587 61.6866C66.7932 62.9525 65.1195 63.5855 63.4457 63.5855Z" fill="#383842"/>
<path d="M89.7533 107.619C90.7943 107.619 91.6385 108.463 91.6385 109.504V121H87.8682V109.504C87.8679 108.463 88.712 107.619 89.7533 107.619Z" fill="#FD75BE"/>
</g>
<defs>
<linearGradient id="paint0_linear" x1="0.421833" y1="111.02" x2="37.1494" y2="111.02" gradientUnits="userSpaceOnUse">
<stop stop-color="#A27CCF"/>
<stop offset="0.9777" stop-color="#8959C3"/>
</linearGradient>
<linearGradient id="paint1_linear" x1="88.4707" y1="78.178" x2="120.578" y2="78.178" gradientUnits="userSpaceOnUse">
<stop offset="0.000558036" stop-color="#F5AA3E"/>
<stop offset="0.9777" stop-color="#FAC986"/>
</linearGradient>
<linearGradient id="paint2_linear" x1="63.4458" y1="107.845" x2="63.4458" y2="0" gradientUnits="userSpaceOnUse">
<stop offset="0.000558036" stop-color="#F5AA3E"/>
<stop offset="0.9777" stop-color="#FAC986"/>
</linearGradient>
<linearGradient id="paint3_linear" x1="56.9726" y1="121" x2="56.9726" y2="83.215" gradientUnits="userSpaceOnUse">
<stop offset="0.0212" stop-color="#FFB1DB"/>
<stop offset="1" stop-color="#FD86C8"/>
</linearGradient>
<radialGradient id="paint4_radial" cx="0" cy="0" r="1" gradientUnits="userSpaceOnUse" gradientTransform="translate(18.8406 53.9214) scale(12.2815)">
<stop stop-color="#FDDACC"/>
<stop offset="0.9788" stop-color="#FDC8BB"/>
</radialGradient>
<radialGradient id="paint5_radial" cx="0" cy="0" r="1" gradientUnits="userSpaceOnUse" gradientTransform="translate(108.052 53.9214) scale(12.2815)">
<stop stop-color="#FDDACC"/>
<stop offset="0.9788" stop-color="#FDC8BB"/>
</radialGradient>
<linearGradient id="paint6_linear" x1="44.2978" y1="102.434" x2="64.89" y2="102.434" gradientUnits="userSpaceOnUse">
<stop offset="0.0223" stop-color="#8959C3"/>
<stop offset="1" stop-color="#A27CCF"/>
</linearGradient>
<linearGradient id="paint7_linear" x1="62.0019" y1="102.434" x2="82.594" y2="102.434" gradientUnits="userSpaceOnUse">
<stop stop-color="#A27CCF"/>
<stop offset="0.9777" stop-color="#8959C3"/>
</linearGradient>
<linearGradient id="paint8_linear" x1="63.4459" y1="107.619" x2="63.4459" y2="94.4608" gradientUnits="userSpaceOnUse">
<stop stop-color="#A27CCF"/>
<stop offset="0.9777" stop-color="#8959C3"/>
</linearGradient>
<linearGradient id="paint9_linear" x1="63.4457" y1="98.5263" x2="63.4457" y2="16.295" gradientUnits="userSpaceOnUse">
<stop offset="0.0212" stop-color="#FDC8BB"/>
<stop offset="1" stop-color="#FDDACC"/>
</linearGradient>
<linearGradient id="paint10_linear" x1="1.13731" y1="89.5108" x2="22.8009" y2="89.5108" gradientUnits="userSpaceOnUse">
<stop offset="0.0212" stop-color="#FDC8BB"/>
<stop offset="1" stop-color="#FDDACC"/>
</linearGradient>
<clipPath id="clip0">
<rect width="121" height="121" fill="white"/>
</clipPath>
</defs>
</svg>
