<svg width="25" height="24" viewBox="0 0 25 24" fill="none" xmlns="http://www.w3.org/2000/svg">
<path d="M24.3002 21.9767L19.8509 17.56C21.578 15.4049 22.4143 12.6695 22.188 9.91628C21.9618 7.16302 20.69 4.60118 18.6342 2.75751C16.5785 0.913839 13.895 -0.0715191 11.1356 0.00404582C8.37613 0.0796108 5.75051 1.21035 3.79858 3.16377C1.84664 5.11719 0.716757 7.74481 0.64125 10.5063C0.565742 13.2678 1.55035 15.9534 3.39262 18.0107C5.23489 20.068 7.79479 21.3407 10.546 21.5672C13.2971 21.7937 16.0304 20.9567 18.1839 19.2283L22.5972 23.645C22.7087 23.7575 22.8414 23.8468 22.9875 23.9077C23.1337 23.9686 23.2904 24 23.4487 24C23.607 24 23.7638 23.9686 23.9099 23.9077C24.0561 23.8468 24.1887 23.7575 24.3002 23.645C24.5164 23.4212 24.6372 23.1221 24.6372 22.8108C24.6372 22.4996 24.5164 22.2005 24.3002 21.9767ZM11.4559 19.2283C9.79548 19.2283 8.17239 18.7355 6.79184 17.8124C5.41129 16.8892 4.33528 15.5771 3.69988 14.0419C3.06448 12.5068 2.89823 10.8175 3.22215 9.18784C3.54608 7.55813 4.34562 6.06115 5.51969 4.88619C6.69375 3.71124 8.1896 2.91108 9.81807 2.58691C11.4465 2.26274 13.1345 2.42912 14.6685 3.065C16.2025 3.70088 17.5136 4.77771 18.4361 6.15931C19.3585 7.54091 19.8509 9.16523 19.8509 10.8269C19.8509 13.0551 18.9664 15.192 17.392 16.7675C15.8177 18.3431 13.6824 19.2283 11.4559 19.2283Z" fill="#A5AAAF"/>
</svg>
