<svg width="288" height="60" viewBox="0 0 288 60" fill="none" xmlns="http://www.w3.org/2000/svg">
<g filter="url(#filter0_d)">
<rect x="4" width="52" height="52" rx="12" fill="#90C1BF"/>
<path d="M30 16.4C28.1013 16.4 26.2452 16.963 24.6665 18.0179C23.0878 19.0728 21.8574 20.5721 21.1308 22.3262C20.4042 24.0804 20.214 26.0107 20.5845 27.8729C20.9549 29.7351 21.8692 31.4456 23.2118 32.7882C24.5544 34.1308 26.2649 35.0451 28.1271 35.4155C29.9894 35.786 31.9196 35.5958 33.6738 34.8692C35.4279 34.1426 36.9272 32.9122 37.9821 31.3335C39.037 29.7548 39.6 27.8987 39.6 26C39.5971 23.4548 38.5848 21.0147 36.7851 19.2149C34.9853 17.4152 32.5452 16.4029 30 16.4ZM30 32.4C28.7342 32.4 27.4968 32.0246 26.4444 31.3214C25.3919 30.6182 24.5716 29.6186 24.0872 28.4492C23.6028 27.2797 23.476 25.9929 23.723 24.7514C23.9699 23.5099 24.5795 22.3696 25.4745 21.4745C26.3696 20.5795 27.5099 19.9699 28.7514 19.723C29.9929 19.476 31.2797 19.6028 32.4492 20.0872C33.6186 20.5716 34.6182 21.3919 35.3214 22.4444C36.0246 23.4968 36.4 24.7342 36.4 26C36.3981 27.6968 35.7232 29.3236 34.5234 30.5234C33.3236 31.7232 31.6968 32.3981 30 32.4ZM38.8 6H21.2C18.2306 6.00339 15.3838 7.18447 13.2841 9.28415C11.1845 11.3838 10.0034 14.2306 10 17.2V34.8C10.0034 37.7694 11.1845 40.6162 13.2841 42.7159C15.3838 44.8155 18.2306 45.9966 21.2 46H38.8C41.7694 45.9966 44.6162 44.8155 46.7159 42.7159C48.8155 40.6162 49.9966 37.7694 50 34.8V17.2C49.9966 14.2306 48.8155 11.3838 46.7159 9.28415C44.6162 7.18447 41.7694 6.00339 38.8 6ZM46.8 34.8C46.7976 36.921 45.954 38.9544 44.4542 40.4542C42.9544 41.954 40.921 42.7976 38.8 42.8H21.2C19.079 42.7976 17.0456 41.954 15.5458 40.4542C14.046 38.9544 13.2024 36.921 13.2 34.8V17.2C13.2024 15.079 14.046 13.0456 15.5458 11.5458C17.0456 10.046 19.079 9.20238 21.2 9.2H38.8C40.921 9.20238 42.9544 10.046 44.4542 11.5458C45.954 13.0456 46.7976 15.079 46.8 17.2V34.8ZM42.8 15.6C42.8 16.0747 42.6592 16.5387 42.3955 16.9334C42.1318 17.328 41.757 17.6357 41.3184 17.8173C40.8799 17.999 40.3973 18.0465 39.9318 17.9539C39.4662 17.8613 39.0386 17.6327 38.7029 17.2971C38.3673 16.9614 38.1387 16.5338 38.0461 16.0682C37.9535 15.6027 38.001 15.1201 38.1827 14.6816C38.3643 14.243 38.672 13.8682 39.0666 13.6045C39.4613 13.3408 39.9253 13.2 40.4 13.2C41.0365 13.2 41.647 13.4529 42.0971 13.9029C42.5471 14.353 42.8 14.9635 42.8 15.6Z" fill="white"/>
<rect x="156" width="52" height="52" rx="12" fill="#90C1BF"/>
<path d="M180.998 7.00631C177.788 7.04506 170.886 7.57256 167.026 11.1138C164.155 13.9588 163.153 18.1651 163.035 23.3663C162.938 28.5488 162.82 38.2813 172.201 40.9313V44.9676C172.201 44.9676 172.143 46.5826 173.21 46.9138C174.525 47.3301 175.274 46.0876 176.524 44.7526L178.855 42.1163C185.274 42.6501 190.19 41.4201 190.756 41.2376C192.059 40.8213 199.395 39.8838 200.594 30.1501C201.824 20.0976 199.995 13.7638 196.694 10.8988H196.674C195.678 9.98131 191.674 7.06381 182.729 7.03131C182.729 7.03131 182.065 6.98631 180.998 7.00506V7.00631ZM181.108 9.83256C182.019 9.82631 182.573 9.86506 182.573 9.86506C190.144 9.88506 193.758 12.1638 194.61 12.9313C197.39 15.3138 198.823 21.0238 197.774 29.4163C196.778 37.5538 190.828 38.0688 189.726 38.4201C189.258 38.5701 184.928 39.6376 179.473 39.2863C179.473 39.2863 175.41 44.1888 174.14 45.4513C173.939 45.6726 173.704 45.7376 173.554 45.7051C173.339 45.6526 173.274 45.3863 173.286 45.0213L173.325 38.3226C165.369 36.1226 165.838 27.8213 165.923 23.4851C166.02 19.1488 166.834 15.6013 169.256 13.1988C172.518 10.2501 178.378 9.85256 181.105 9.83256H181.108ZM181.708 14.1676C181.642 14.1669 181.577 14.1792 181.516 14.2038C181.456 14.2283 181.4 14.2647 181.354 14.3107C181.307 14.3567 181.27 14.4115 181.245 14.4719C181.22 14.5323 181.206 14.5971 181.206 14.6626C181.206 14.9426 181.434 15.1638 181.708 15.1638C182.947 15.1402 184.179 15.3623 185.332 15.8171C186.485 16.2719 187.537 16.9505 188.426 17.8138C190.243 19.5776 191.128 21.9476 191.161 25.0463C191.161 25.3201 191.383 25.5476 191.663 25.5476V25.5276C191.794 25.5279 191.921 25.476 192.015 25.3833C192.109 25.2906 192.162 25.1645 192.164 25.0326C192.224 23.574 191.988 22.1183 191.469 20.754C190.949 19.3897 190.158 18.1453 189.143 17.0963C187.164 15.1626 184.656 14.1663 181.708 14.1663V14.1676ZM175.119 15.3138C174.765 15.2621 174.404 15.3331 174.096 15.5151H174.07C173.355 15.934 172.712 16.4635 172.163 17.0838C171.706 17.6113 171.459 18.1451 171.394 18.6588C171.355 18.9651 171.381 19.2713 171.473 19.5638L171.505 19.5838C172.019 21.0938 172.69 22.5463 173.51 23.9138C174.566 25.835 175.866 27.6118 177.378 29.2001L177.423 29.2651L177.494 29.3176L177.539 29.3701L177.591 29.4151C179.185 30.9308 180.966 32.2368 182.891 33.3013C185.091 34.4988 186.426 35.0651 187.228 35.3001V35.3126C187.463 35.3838 187.676 35.4163 187.891 35.4163C188.574 35.3663 189.221 35.089 189.728 34.6288C190.345 34.0797 190.869 33.4332 191.278 32.7151V32.7026C191.661 31.9801 191.531 31.2963 190.978 30.8338C189.869 29.8644 188.669 29.0034 187.396 28.2626C186.544 27.8001 185.678 28.0801 185.326 28.5488L184.578 29.4926C184.194 29.9613 183.496 29.8963 183.496 29.8963L183.476 29.9088C178.275 28.5801 176.888 23.3138 176.888 23.3138C176.888 23.3138 176.823 22.5976 177.304 22.2326L178.241 21.4776C178.69 21.1126 179.003 20.2476 178.521 19.3938C177.786 18.119 176.926 16.9195 175.956 15.8126C175.744 15.5516 175.447 15.374 175.116 15.3113L175.119 15.3138ZM182.573 16.7988C181.909 16.7988 181.909 17.8013 182.579 17.8013C183.404 17.8147 184.219 17.9906 184.976 18.319C185.733 18.6473 186.419 19.1217 186.993 19.7151C187.516 20.2926 187.918 20.9693 188.176 21.7051C188.433 22.4409 188.54 23.2209 188.49 23.9988C188.492 24.1305 188.546 24.256 188.64 24.3485C188.733 24.441 188.86 24.4932 188.991 24.4938L189.011 24.5201C189.144 24.5191 189.271 24.466 189.365 24.3722C189.458 24.2784 189.512 24.1514 189.513 24.0188C189.558 22.0326 188.94 20.3663 187.729 19.0313C186.511 17.6963 184.813 16.9476 182.644 16.7988H182.573ZM183.394 19.4938C182.71 19.4738 182.684 20.4963 183.361 20.5163C185.009 20.6013 185.809 21.4338 185.914 23.1463C185.916 23.2763 185.969 23.4002 186.062 23.4916C186.154 23.5829 186.279 23.6344 186.409 23.6351H186.429C186.496 23.6322 186.561 23.616 186.622 23.5875C186.682 23.5591 186.737 23.5188 186.781 23.4691C186.826 23.4194 186.861 23.3613 186.883 23.2982C186.905 23.235 186.914 23.1681 186.91 23.1013C186.793 20.8688 185.575 19.6113 183.414 19.4951H183.394V19.4938Z" fill="white"/>
<rect x="232" width="52" height="52" rx="12" fill="#90C1BF"/>
<path d="M272.435 11.2082L238.774 24.1058C236.477 25.0226 236.49 26.296 238.353 26.8638L246.995 29.5426L266.99 17.0071C267.936 16.4356 268.799 16.743 268.089 17.3693L251.889 31.8968H251.886L251.889 31.8987L251.293 40.7499C252.167 40.7499 252.552 40.3519 253.042 39.8822L257.239 35.8263L265.971 42.2346C267.581 43.1155 268.737 42.6628 269.137 40.7537L274.869 13.9134C275.456 11.5761 273.971 10.5178 272.435 11.2082Z" fill="white"/>
<rect x="80" width="52" height="52" rx="12" fill="#90C1BF"/>
<path fill-rule="evenodd" clip-rule="evenodd" d="M119.463 11.8137C117.711 9.96536 115.625 8.49976 113.328 7.50182C111.03 6.50389 108.567 5.99344 106.08 6.00006C95.6517 6.00006 87.1623 14.8916 87.1581 25.8212C87.1581 29.3142 88.0285 32.7234 89.683 35.7306L87 46L97.03 43.2422C99.8045 44.8245 102.913 45.6541 106.072 45.6556H106.08C116.506 45.6556 124.996 36.764 125 25.8344C125.007 23.2301 124.521 20.6501 123.571 18.2435C122.621 15.8369 121.225 13.6516 119.463 11.8137ZM106.08 42.3104H106.074C103.257 42.3108 100.492 41.5168 98.0691 40.0119L97.4958 39.6542L91.544 41.2904L93.131 35.2118L92.7579 34.5891C91.1831 31.9625 90.3495 28.9229 90.3532 25.8212C90.3574 16.7375 97.4115 9.34738 106.086 9.34738C108.152 9.34257 110.199 9.76707 112.107 10.5963C114.015 11.4256 115.748 12.6431 117.204 14.1785C118.668 15.7065 119.828 17.5233 120.618 19.524C121.408 21.5247 121.811 23.6695 121.805 25.8344C121.801 34.9181 114.746 42.3104 106.08 42.3104ZM114.706 29.97C114.232 29.7205 111.91 28.5238 111.475 28.3582C111.043 28.1926 110.729 28.1109 110.413 28.6055C110.097 29.1 109.191 30.2151 108.915 30.5463C108.639 30.8775 108.363 30.9172 107.89 30.6699C107.418 30.4226 105.895 29.8993 104.088 28.2124C102.683 26.8987 101.734 25.278 101.458 24.7812C101.182 24.2844 101.429 24.0173 101.667 23.77C101.88 23.5492 102.139 23.1915 102.375 22.9022C102.611 22.613 102.689 22.4076 102.847 22.0764C103.005 21.7452 102.927 21.456 102.807 21.2087C102.689 20.9592 101.743 18.5216 101.348 17.5302C100.967 16.5697 100.577 16.6978 100.286 16.6845C99.985 16.6716 99.6836 16.6657 99.3821 16.6669C99.1424 16.6733 98.9065 16.7315 98.6893 16.8379C98.472 16.9443 98.2781 17.0965 98.1197 17.2851C97.6855 17.7819 96.4652 18.9786 96.4652 21.4162C96.4652 23.8539 98.1597 26.2098 98.3958 26.541C98.6318 26.8722 101.73 31.8733 106.472 34.0194C107.602 34.5295 108.483 34.8342 109.168 35.0638C110.299 35.4414 111.33 35.3862 112.146 35.2603C113.054 35.119 114.942 34.0636 115.337 32.9066C115.731 31.7496 115.731 30.7582 115.613 30.5507C115.495 30.3431 115.176 30.2173 114.706 29.97Z" fill="white"/>
</g>
<defs>
<filter id="filter0_d" x="0" y="0" width="288" height="60" filterUnits="userSpaceOnUse" color-interpolation-filters="sRGB">
<feFlood flood-opacity="0" result="BackgroundImageFix"/>
<feColorMatrix in="SourceAlpha" type="matrix" values="0 0 0 0 0 0 0 0 0 0 0 0 0 0 0 0 0 0 127 0"/>
<feOffset dy="4"/>
<feGaussianBlur stdDeviation="2"/>
<feColorMatrix type="matrix" values="0 0 0 0 0 0 0 0 0 0 0 0 0 0 0 0 0 0 0.17 0"/>
<feBlend mode="normal" in2="BackgroundImageFix" result="effect1_dropShadow"/>
<feBlend mode="normal" in="SourceGraphic" in2="effect1_dropShadow" result="shape"/>
</filter>
</defs>
</svg>
