<svg width="30" height="30" viewBox="0 0 30 30" fill="none" xmlns="http://www.w3.org/2000/svg">
<path d="M27.4998 12.0875C27.4209 11.8588 27.2773 11.658 27.0865 11.5093C26.8957 11.3607 26.6658 11.2706 26.4248 11.25L19.3123 10.2125L16.1248 3.74997C16.0225 3.53863 15.8627 3.3604 15.6637 3.23568C15.4647 3.11097 15.2347 3.04483 14.9998 3.04483C14.765 3.04483 14.535 3.11097 14.336 3.23568C14.137 3.3604 13.9772 3.53863 13.8748 3.74997L10.6873 10.2L3.57485 11.25C3.3435 11.2829 3.126 11.3799 2.94704 11.5302C2.76807 11.6804 2.6348 11.8778 2.56235 12.1C2.49603 12.3171 2.49008 12.5481 2.54513 12.7683C2.60019 12.9886 2.71417 13.1896 2.87485 13.35L8.03735 18.35L6.78735 25.45C6.73688 25.6855 6.75554 25.9306 6.84108 26.1558C6.92662 26.3809 7.0754 26.5766 7.26951 26.7192C7.46363 26.8618 7.69481 26.9453 7.93526 26.9597C8.17571 26.974 8.41517 26.9185 8.62485 26.8L14.9998 23.4625L21.3748 26.8C21.5503 26.8989 21.7484 26.9506 21.9498 26.95C22.2146 26.9509 22.4729 26.8678 22.6873 26.7125C22.8813 26.5735 23.0314 26.382 23.12 26.1605C23.2086 25.939 23.232 25.6968 23.1873 25.4625L21.9373 18.3625L27.0998 13.3625C27.2803 13.2096 27.4137 13.0086 27.4845 12.7829C27.5553 12.5572 27.5606 12.3161 27.4998 12.0875ZM19.8123 17.0875C19.6677 17.228 19.5591 17.4014 19.496 17.593C19.4329 17.7845 19.417 17.9885 19.4498 18.1875L20.3498 23.4375L15.6498 20.9375C15.4672 20.8471 15.2661 20.8001 15.0623 20.8001C14.8586 20.8001 14.6575 20.8471 14.4748 20.9375L9.77485 23.4375L10.6748 18.1875C10.7076 17.9885 10.6918 17.7845 10.6287 17.593C10.5656 17.4014 10.457 17.228 10.3123 17.0875L6.56235 13.3375L11.8248 12.575C12.0273 12.5468 12.2198 12.4694 12.3855 12.3495C12.5511 12.2297 12.6848 12.071 12.7748 11.8875L14.9998 7.12497L17.3498 11.9C17.4399 12.0835 17.5736 12.2422 17.7392 12.362C17.9049 12.4819 18.0974 12.5593 18.2998 12.5875L23.5623 13.35L19.8123 17.0875Z" fill="#F2B236"/>
</svg>
